<svg xmlns="http://www.w3.org/2000/svg"  viewBox="0 0 100 100" width="100px" height="100px"><path d="M26.5,93C17.953,93,11,86.047,11,77.5v-51C11,17.953,17.953,11,26.5,11h51C86.047,11,93,17.953,93,26.5v51 C93,86.047,86.047,93,77.5,93H26.5z" opacity=".35"/><path fill="#f2f2f2" d="M24.5,91C15.953,91,9,84.047,9,75.5v-51C9,15.953,15.953,9,24.5,9h51C84.047,9,91,15.953,91,24.5v51 C91,84.047,84.047,91,75.5,91H24.5z"/><path fill="#bd7bc8" d="M75.5,15.5h-51c-4.971,0-9,4.029-9,9v51c0,4.971,4.029,9,9,9h51c4.971,0,9-4.029,9-9v-51 C84.5,19.529,80.471,15.5,75.5,15.5z"/><path fill="#40396e" d="M75.5,86h-51C18.71,86,14,81.29,14,75.5v-51C14,18.71,18.71,14,24.5,14h51 C81.29,14,86,18.71,86,24.5v51C86,81.29,81.29,86,75.5,86z M24.5,17c-4.136,0-7.5,3.364-7.5,7.5v51c0,4.136,3.364,7.5,7.5,7.5h51 c4.136,0,7.5-3.364,7.5-7.5v-51c0-4.136-3.364-7.5-7.5-7.5H24.5z"/><path fill="#f2f2f2" d="M71.167,40.792l1.764-10.584H62.065l1.058-5.292H37.652v5.292H27.069l1.764,12.348l-1.764,26.459 l10.584-3.175v9.243l15.876-3.175v-7.596l19.345,1.295L71.167,40.792z"/><g><path fill="#bd7bc8" d="M41.18,28.445v42.335L50,69.015V53.14h7.056v-8.82H50v-7.056h7.056l1.764-8.82H41.18z"/></g></svg>