<?xml version="1.0" encoding="utf-8"?>
<!-- Generator: Adobe Illustrator 22.1.0, SVG Export Plug-In . SVG Version: 6.00 Build 0)  -->
<svg version="1.1" id="Capa_1" xmlns="http://www.w3.org/2000/svg" xmlns:xlink="http://www.w3.org/1999/xlink" x="0px" y="0px"
	 viewBox="0 0 280 280" style="enable-background:new 0 0 280 280;" xml:space="preserve">
<style type="text/css">
	.st0{clip-path:url(#SVGID_2_);fill:#EB2C2A;}
	.st1{clip-path:url(#SVGID_4_);fill:#FFFFFF;}
	.st2{clip-path:url(#SVGID_6_);fill:#FFFFFF;}
	.st3{clip-path:url(#SVGID_8_);fill:#FFFFFF;}
	.st4{clip-path:url(#SVGID_10_);fill:#FFFFFF;}
	.st5{clip-path:url(#SVGID_12_);fill:#FFFFFF;}
</style>
<g id="Harpers">
</g>
<g id="ambrosia">
</g>
<g id="casona">
</g>
<g id="colocolo">
</g>
<g id="lld">
</g>
<g id="comercial">
</g>
<g id="comunidadmujer">
</g>
<g id="mater">
</g>
<g id="deportedoc">
</g>
<g id="administracion">
</g>
<g id="insitu">
</g>
<g id="latam">
</g>
<g id="maycas">
</g>
<g id="mierdatengocancer">
</g>
<g id="paloalto">
</g>
<g id="raquis">
</g>
<g id="redbionova">
</g>
<g id="redencuentros">
</g>
<g id="ritual">
</g>
<g id="urbandeli">
</g>
<g id="centrodeinnovacion">
</g>
<g id="easybici">
</g>
<g id="lapolar">
</g>
<g id="parquearcaya">
</g>
<g id="vinamaipo">
</g>
<g id="rumbos">
</g>
<g id="tyndallgroup">
</g>
<g id="skretting">
</g>
<g id="ikv">
</g>
<g id="taconeras">
</g>
<g id="frontera">
</g>
<g id="brandmetric">
</g>
<g id="colunga">
</g>
<g id="ibanez-atkinson">
</g>
<g id="giramundos">
</g>
<g id="giramundos_x5F_mono">
</g>
<g id="krebs">
</g>
<g id="schneider">
</g>
<g id="mok">
</g>
<g id="needle">
</g>
<g id="rafa_arcaute">
</g>
<g id="vgl">
</g>
<g id="concha_y_toro">
</g>
<g id="veramonte">
</g>
<g id="televisa">
</g>
<g id="mcc">
</g>
<g id="uai">
</g>
<g id="codelco">
</g>
<g id="melon">
</g>
<g id="servel">
</g>
<g id="kotex">
</g>
<g id="kmcero">
</g>
<g id="incofin">
</g>
<g id="caras">
</g>
<g id="patagonia">
</g>
<g id="agua">
</g>
<g id="centro_enlace">
</g>
<g id="clapes">
</g>
<g id="ed_x5F_continua">
</g>
<g id="administracion_uc">
</g>
<g id="spiral">
</g>
<g id="neyen">
</g>
<g id="vh">
</g>
<g id="economia_uc">
</g>
<g id="sociologia_uc">
</g>
<g id="lan_x5F_cargo">
</g>
<g id="lan_x5F_rrhh">
</g>
<g>
	<g>
		<defs>
			<polygon id="SVGID_1_" points="64.6,105.2 64.6,159.5 55.4,159.5 55.4,124.8 46.9,124.8 46.9,159.5 10,159.5 10,105.2 			"/>
		</defs>
		<clipPath id="SVGID_2_">
			<use xlink:href="#SVGID_1_"  style="overflow:visible;"/>
		</clipPath>
		<rect x="0.8" y="96.1" class="st0" width="72.9" height="72.6"/>
	</g>
	<g>
		<defs>
			<path id="SVGID_3_" d="M74.1,125.4v35.3l9,0l0-27.5h10c0,0,3.2,0,3.3,3.3l0.2,24.1h9.5l0.1-22.8c0,0,0.1-12.1-13.5-12.5
				L74.1,125.4z"/>
		</defs>
		<clipPath id="SVGID_4_">
			<use xlink:href="#SVGID_3_"  style="overflow:visible;"/>
		</clipPath>
		<rect x="65" y="116.1" class="st1" width="50.4" height="53.7"/>
	</g>
	<g>
		<defs>
			<path id="SVGID_5_" d="M136.9,125.3l-21.3-0.1v6.7h17.8c0,0,5.8-0.2,6.2,5.1l0.1,1.7h-16.3c0,0-9.1,0.2-10,8.4v5.7
				c0,0,0.6,5.1,7.8,6.7l27.8-0.1v-23.3C148.9,136.1,148.9,125.7,136.9,125.3z M139.4,153l-13.2-0.1c0,0-3.6,0.2-3.4-2.4l-0.1-2.2
				c0,0,0-2.7,2.9-2.9l13.8,0.1L139.4,153z"/>
		</defs>
		<clipPath id="SVGID_6_">
			<use xlink:href="#SVGID_5_"  style="overflow:visible;"/>
		</clipPath>
		<rect x="104.1" y="116.1" class="st2" width="53.9" height="52.5"/>
	</g>
	<g>
		<defs>
			<path id="SVGID_7_" d="M185.7,160.5v-7.6l-13.2,0.1c0,0-8.1-0.6-7.8-7.9v-4.5c0,0,0.1-6.8,7.3-7.7l13.5-0.1v-7.6h-15.1
				c0,0-14.1,0.3-15.5,14.7c0,0-0.5,5.7,0.2,7.7c0,0,2.5,12.6,17.1,12.9L185.7,160.5z"/>
		</defs>
		<clipPath id="SVGID_8_">
			<use xlink:href="#SVGID_7_"  style="overflow:visible;"/>
		</clipPath>
		<rect x="145.7" y="116.1" class="st3" width="49.2" height="53.7"/>
	</g>
	<g>
		<defs>
			<path id="SVGID_9_" d="M214,125.3l-21.3-0.1v6.7h17.8c0,0,5.8-0.2,6.2,5.1l0.1,1.7h-16.3c0,0-9.1,0.2-10,8.4v5.7
				c0,0,0.6,5.1,7.8,6.7l27.8-0.1v-23.3C226.1,136.1,226.1,125.7,214,125.3z M216.6,153l-13.2-0.1c0,0-3.6,0.2-3.4-2.4l-0.1-2.2
				c0,0,0-2.7,2.9-2.9l13.8,0.1L216.6,153z"/>
		</defs>
		<clipPath id="SVGID_10_">
			<use xlink:href="#SVGID_9_"  style="overflow:visible;"/>
		</clipPath>
		<rect x="181.3" y="116.1" class="st4" width="53.9" height="52.5"/>
	</g>
	<g>
		<defs>
			<path id="SVGID_11_" d="M270,143.2c0.6-17.7-15.3-17.9-15.3-17.9h-20.3v49.5h9.3v-15.1h11C271,159.2,270,143.2,270,143.2
				 M254.4,152.4l-10.6,0.1l0.1-19.6l9.6-0.1c0,0,5.7,0.3,6.3,6.6l0.1,7.3C259.8,146.6,259.8,150.9,254.4,152.4"/>
		</defs>
		<clipPath id="SVGID_12_">
			<use xlink:href="#SVGID_11_"  style="overflow:visible;"/>
		</clipPath>
		<rect x="225.2" y="116.1" class="st5" width="53.9" height="67.8"/>
	</g>
</g>
</svg>
