<?xml version="1.0" standalone="no"?>
<!DOCTYPE svg PUBLIC "-//W3C//DTD SVG 20010904//EN"
 "http://www.w3.org/TR/2001/REC-SVG-20010904/DTD/svg10.dtd">
<svg version="1.0" xmlns="http://www.w3.org/2000/svg"
 width="547.000000pt" height="456.000000pt" viewBox="0 0 547.000000 456.000000"
 preserveAspectRatio="xMidYMid meet">

<g transform="translate(0.000000,456.000000) scale(0.100000,-0.100000)"
fill="#000000" stroke="none">
<path d="M2245 4376 c-5 -2 -57 -12 -115 -22 -113 -19 -130 -26 -130 -55 0
-11 -6 -19 -14 -19 -7 0 -28 -3 -46 -7 -24 -4 -31 -3 -26 5 12 20 -20 13 -39
-8 -10 -11 -25 -19 -34 -19 -14 1 -14 2 1 6 9 2 19 11 22 19 6 16 -5 19 -20 4
-6 -6 -19 -12 -30 -14 -28 -6 -79 -35 -77 -43 2 -4 -5 -8 -15 -9 -45 -2 -53
-5 -47 -14 4 -6 -1 -7 -11 -3 -10 4 -21 0 -28 -9 -6 -8 -33 -23 -61 -33 -27
-10 -72 -26 -100 -36 -27 -9 -51 -23 -53 -29 -7 -19 83 -6 168 26 69 25 89 27
255 31 237 6 304 4 340 -7 17 -5 64 -14 105 -20 41 -6 79 -15 84 -20 6 -6 17
-10 25 -10 20 0 184 -70 192 -82 3 -6 8 -8 11 -6 7 6 118 -66 118 -77 0 -11
49 -46 65 -47 9 -1 55 -56 55 -66 0 -2 -35 16 -77 40 -155 85 -359 180 -418
194 -152 35 -254 47 -384 45 -187 -2 -356 -17 -421 -36 -30 -10 -75 -19 -100
-22 -44 -5 -81 -23 -47 -23 9 0 17 -4 17 -9 0 -5 10 -12 23 -14 l22 -4 -22 -2
c-25 -1 -31 -16 -10 -24 9 -4 9 -6 -1 -6 -21 -1 -52 18 -52 33 0 7 -7 13 -15
13 -8 0 -13 -2 -10 -5 8 -8 -16 -43 -26 -37 -5 4 -9 -1 -9 -9 0 -9 5 -16 11
-16 6 0 8 -7 5 -16 -4 -12 -2 -15 9 -10 8 3 15 1 15 -5 0 -6 18 -10 43 -8 43
2 51 0 152 -45 82 -37 130 -46 195 -38 72 10 174 -4 227 -29 38 -18 44 -19 58
-6 8 9 38 23 66 32 79 26 188 16 279 -26 38 -17 75 -38 81 -45 20 -24 35 -16
74 41 l38 56 71 -6 c71 -6 71 -7 124 -63 55 -60 63 -60 78 -4 6 22 9 23 123
20 l116 -3 10 -85 c9 -80 11 -85 35 -88 45 -5 53 -11 41 -26 -14 -16 -23 -56
-13 -56 4 0 18 18 31 40 35 57 86 74 194 68 83 -6 133 -23 199 -70 l27 -19 48
37 c26 20 47 42 45 48 -2 6 -21 29 -41 51 -21 22 -54 57 -74 78 -22 24 -37 33
-39 25 -7 -19 3 -49 13 -42 5 3 6 11 3 17 -4 7 3 2 15 -10 11 -12 21 -26 21
-31 0 -5 7 -15 15 -22 8 -7 15 -17 15 -22 0 -6 -9 0 -20 13 -19 23 -19 23 -20
3 0 -11 5 -25 12 -32 9 -9 9 -12 0 -12 -7 0 -12 3 -12 8 0 7 -42 56 -116 134
-24 26 -44 52 -44 58 0 5 -4 10 -8 10 -9 0 -82 67 -82 75 0 15 29 0 59 -30 24
-25 37 -32 42 -23 6 9 12 8 26 -3 17 -13 17 -13 4 4 -8 10 -21 15 -32 12 -11
-4 -21 1 -28 14 -15 27 -14 31 7 24 16 -5 16 -5 0 12 -15 16 -19 16 -34 4 -15
-12 -16 -12 -10 7 9 30 -16 49 -43 34 -12 -6 -21 -15 -21 -20 0 -16 17 -12 24
5 8 22 26 19 26 -4 0 -36 -47 -20 -103 35 -29 27 -98 80 -154 117 -57 37 -103
73 -103 82 0 8 -7 15 -16 15 -8 0 -13 4 -10 8 3 5 -5 14 -17 20 -72 34 -117
53 -135 57 -12 2 -29 8 -39 12 -10 5 -34 6 -53 3 -20 -3 -49 0 -69 8 -19 7
-37 10 -40 5 -3 -4 -94 -8 -201 -7 -128 0 -227 -5 -288 -14 -84 -14 -116 -12
-99 4 4 4 29 9 57 12 27 2 48 8 45 12 -2 4 8 6 23 4 14 -1 29 1 32 5 3 5 24
11 48 15 24 3 41 2 38 -3 -3 -4 8 -8 24 -7 17 1 30 4 30 9 0 4 9 2 19 -5 15
-9 25 -9 46 0 22 10 26 10 23 0 -4 -9 6 -14 31 -15 26 -1 32 1 21 8 -11 8 -8
8 10 3 14 -4 61 -8 106 -9 44 -1 87 -5 95 -10 11 -6 11 -4 -1 7 -8 9 -49 21
-90 27 -75 12 -316 24 -335 17z m505 -86 c0 -5 -7 -7 -15 -4 -8 4 -15 8 -15
10 0 2 7 4 15 4 8 0 15 -4 15 -10z m-60 -174 c0 -2 -7 -6 -15 -10 -8 -3 -15
-1 -15 4 0 6 7 10 15 10 8 0 15 -2 15 -4z m110 -6 c0 -5 -2 -10 -4 -10 -3 0
-8 5 -11 10 -3 6 -1 10 4 10 6 0 11 -4 11 -10z m46 -22 c3 -11 3 -22 0 -25 -3
-4 -6 1 -6 10 0 10 -4 17 -9 17 -5 0 -11 7 -14 14 -4 10 -1 13 8 10 8 -3 17
-15 21 -26z m-1337 -70 c-10 -7 -1 -8 27 -5 22 3 47 1 55 -3 8 -5 73 -11 144
-15 140 -7 200 -18 227 -42 9 -8 21 -12 26 -9 6 3 12 -1 16 -9 3 -8 10 -15 16
-15 5 0 24 -12 41 -27 l30 -27 -23 -9 c-14 -5 -24 -4 -26 3 -2 5 -8 8 -12 5
-5 -3 -26 2 -47 10 -21 9 -92 34 -157 56 -101 33 -133 39 -203 39 -52 0 -83 4
-83 11 0 6 -8 8 -19 4 -24 -7 -46 26 -29 43 6 6 15 9 21 5 5 -3 3 -10 -4 -15z
m1397 1 c19 -22 19 -22 -3 -10 -13 6 -23 16 -23 21 0 15 5 12 26 -11z m49 3
c-3 -3 -11 0 -18 7 -9 10 -8 11 6 5 10 -3 15 -9 12 -12z m26 -29 c13 -16 12
-17 -3 -4 -10 7 -18 15 -18 17 0 8 8 3 21 -13z m34 -3 c3 -5 1 -10 -4 -10 -6
0 -11 5 -11 10 0 6 2 10 4 10 3 0 8 -4 11 -10z m-1388 -86 c82 -44 80 -42 49
-40 -14 0 -26 5 -26 9 0 5 -9 6 -19 2 -11 -3 -22 -1 -26 5 -3 6 -10 8 -15 5
-5 -3 -26 1 -46 10 -20 8 -45 15 -55 15 -11 0 -19 4 -19 10 0 5 -7 7 -15 4 -8
-4 -15 -2 -15 4 0 35 102 22 187 -24z m1510 -40 c-3 -3 -12 -4 -19 -1 -8 3 -5
6 6 6 11 1 17 -2 13 -5z m93 -46 c30 -33 24 -40 -14 -15 -18 12 -32 25 -29 30
7 12 22 8 43 -15z m16 -53 c21 -11 24 -15 11 -15 -10 0 -25 7 -33 15 -19 19
-14 19 22 0z"/>
<path d="M1578 3903 c6 -2 18 -2 25 0 6 3 1 5 -13 5 -14 0 -19 -2 -12 -5z"/>
<path d="M1966 4304 c-4 -10 -1 -14 6 -12 15 5 23 28 10 28 -5 0 -13 -7 -16
-16z"/>
<path d="M3007 4194 c3 -7 9 -14 14 -14 14 0 10 17 -5 23 -10 4 -13 1 -9 -9z"/>
<path d="M3140 4126 c0 -2 8 -10 18 -17 15 -13 16 -12 3 4 -13 16 -21 21 -21
13z"/>
<path d="M1324 4094 c-18 -14 -18 -15 4 -4 12 6 22 13 22 15 0 8 -5 6 -26 -11z"/>
<path d="M1360 4080 c12 -8 11 -10 -7 -10 -13 0 -23 -4 -23 -10 0 -5 7 -7 15
-4 11 5 13 2 9 -10 -3 -9 -2 -16 4 -16 11 0 24 39 16 52 -3 4 -11 8 -17 8 -7
0 -6 -4 3 -10z"/>
<path d="M3287 4020 c3 -11 9 -17 15 -14 5 3 4 12 -3 20 -16 19 -18 18 -12 -6z"/>
<path d="M1271 3983 c-1 -32 -21 -58 -21 -28 0 12 -6 15 -22 9 -29 -8 -125
-84 -133 -104 -3 -8 7 -2 23 13 32 31 139 60 166 45 12 -7 13 -3 6 24 -5 18
-11 42 -13 53 -3 13 -5 8 -6 -12z"/>
<path d="M560 3955 c-16 -19 -3 -19 30 0 24 13 24 14 4 15 -12 0 -27 -7 -34
-15z"/>
<path d="M476 3888 c-9 -12 -16 -28 -16 -35 0 -6 -5 -24 -10 -38 -8 -21 -13
-25 -24 -16 -7 6 -16 8 -20 4 -4 -4 -2 6 3 22 l11 30 -20 -24 c-11 -13 -20
-29 -20 -36 0 -7 -8 -19 -17 -26 -9 -8 -35 -40 -58 -71 -39 -52 -43 -64 -54
-155 -7 -54 -19 -149 -28 -210 -8 -62 -13 -118 -10 -125 2 -7 8 12 12 42 4 30
11 64 16 75 13 34 11 -50 -6 -176 -9 -63 -18 -181 -21 -263 -11 -279 25 -454
169 -821 75 -191 79 -198 89 -183 6 9 7 6 3 -8 -4 -15 10 -49 44 -110 27 -49
68 -123 90 -164 37 -68 270 -394 344 -480 74 -88 180 -188 192 -184 7 3 16 1
20 -5 4 -7 -1 -8 -12 -4 -16 6 -17 5 -3 -12 20 -24 262 -225 272 -225 4 0 5 8
2 18 -4 10 -3 13 3 6 4 -6 30 -25 56 -43 27 -18 46 -35 43 -38 -3 -3 -23 9
-46 27 -23 18 -43 30 -46 27 -7 -7 46 -46 158 -118 64 -41 98 -57 112 -53 15
4 17 3 8 -4 -11 -7 -7 -14 15 -30 16 -11 42 -24 59 -28 16 -4 35 -16 42 -26 7
-10 17 -18 23 -18 22 0 199 -94 191 -102 -9 -9 -83 18 -93 35 -4 5 -14 7 -22
4 -8 -3 -23 0 -33 7 -25 16 -74 37 -74 31 0 -13 187 -93 315 -135 167 -53 251
-64 275 -35 10 12 15 13 20 4 4 -6 13 -10 20 -7 7 2 -17 23 -53 45 -119 75
-307 232 -307 257 0 6 -16 27 -35 46 -19 19 -35 42 -35 52 0 37 90 55 164 33
27 -8 74 -15 105 -15 52 1 55 2 36 16 -12 9 -21 11 -23 4 -2 -5 -10 -10 -19
-10 -21 0 -109 53 -95 58 7 2 32 -8 57 -22 62 -37 66 -16 8 42 -26 27 -82 89
-123 137 -41 49 -84 98 -96 109 -12 12 -23 32 -26 46 -4 14 -13 51 -22 83 -23
82 -23 167 -1 205 23 38 85 74 131 75 l35 1 -33 16 c-21 9 -34 24 -36 39 -4
23 -11 24 -54 6 -13 -5 -26 11 -61 77 -25 46 -51 103 -57 128 -14 52 -28 220
-19 220 3 0 21 -31 38 -70 18 -38 36 -70 40 -70 4 0 13 -33 20 -73 13 -72 32
-114 48 -104 4 3 14 -1 21 -9 11 -12 10 -15 -2 -20 -9 -3 -16 -12 -16 -20 0
-16 16 -19 25 -4 3 6 15 10 25 10 10 0 46 12 79 26 51 22 60 30 56 48 -2 11
-7 50 -10 85 -5 54 -3 71 17 112 20 44 48 66 48 39 0 -26 70 -102 123 -133 45
-27 74 -37 126 -42 89 -9 137 5 189 55 23 22 42 35 42 29 0 -6 8 -18 18 -25
16 -13 16 -13 0 -14 -19 0 -26 -20 -8 -20 6 0 11 1 13 2 1 1 12 -4 24 -10 12
-7 60 -14 105 -17 l84 -4 1 34 c2 55 11 58 52 18 20 -21 48 -40 62 -42 13 -1
32 -7 41 -12 22 -12 51 -11 43 1 -9 14 41 64 57 57 11 -4 13 2 10 25 -4 27 -3
29 15 20 11 -6 25 -18 33 -26 7 -9 18 -16 26 -16 7 0 20 -8 30 -17 9 -10 24
-18 33 -18 9 0 15 -6 14 -12 -3 -15 13 -17 22 -3 4 7 13 6 26 -1 22 -12 129
-2 129 12 0 5 6 6 13 3 8 -3 20 2 27 11 7 8 22 15 33 15 11 0 17 3 14 6 -6 6
59 64 72 64 10 0 37 -20 27 -20 -14 0 55 -60 70 -60 8 0 17 -7 20 -15 4 -8 10
-13 14 -10 4 3 32 0 62 -5 43 -8 64 -7 97 5 38 13 45 13 64 0 12 -8 30 -15 40
-15 10 0 15 -4 12 -10 -3 -5 -1 -10 4 -10 6 0 11 5 11 10 0 6 7 10 15 10 9 0
21 4 28 10 7 5 26 21 43 35 l31 25 59 -29 c97 -48 208 -49 292 -3 12 7 22 10
22 8 0 -3 20 14 45 37 60 56 82 104 84 186 2 60 -1 71 -29 109 -30 42 -37 62
-21 62 5 0 11 8 15 18 3 9 9 24 12 32 5 11 2 10 -13 -3 -20 -17 -21 -17 -25 7
-3 17 -1 23 6 20 6 -4 -9 12 -34 34 -79 71 -195 100 -281 70 -36 -12 -99 -54
-112 -75 -13 -21 -33 -15 -77 22 -87 72 -225 84 -335 29 -32 -16 -67 -40 -79
-54 -30 -34 -49 -37 -41 -8 4 16 3 19 -3 9 -8 -10 -27 4 -88 65 -76 76 -173
148 -261 194 -37 19 -47 20 -79 10 -19 -7 -48 -25 -62 -42 -32 -36 -64 -102
-51 -106 5 -2 9 -10 9 -19 0 -10 -6 -12 -19 -8 -11 3 -22 1 -26 -5 -3 -5 2
-10 13 -10 10 0 27 -9 37 -20 10 -11 24 -20 32 -20 7 0 18 -11 24 -24 9 -19 7
-29 -6 -50 -22 -34 -31 -33 -51 7 -44 84 -148 124 -244 94 -40 -12 -48 -12
-72 3 -16 9 -43 15 -64 14 -41 -4 -88 -40 -79 -62 2 -7 1 -10 -4 -7 -5 3 -12
1 -16 -5 -4 -6 -24 2 -51 20 -58 41 -161 63 -223 49 -48 -11 -121 -47 -121
-61 0 -16 -17 -8 -29 15 -27 51 -136 95 -189 76 -15 -5 -38 -25 -51 -45 l-24
-35 -38 37 c-33 32 -46 38 -93 42 -61 5 -99 -11 -111 -47 -9 -30 -33 -33 -78
-8 -34 18 -58 22 -132 22 -100 0 -164 -21 -186 -62 -6 -12 -17 -21 -23 -20 -6
1 -10 -4 -8 -12 2 -7 -3 -21 -11 -30 -22 -25 -44 -91 -51 -153 l-7 -57 -117 5
c-179 8 -161 -9 -156 151 3 76 9 142 14 147 5 5 28 2 57 -10 54 -21 82 -19
100 4 7 10 13 14 13 11 0 -9 140 125 140 134 0 4 -11 0 -24 -8 -23 -15 -24
-15 -30 9 -3 14 -21 35 -39 47 -17 13 -35 28 -39 34 -4 5 -8 6 -8 2 0 -4 -9
-3 -20 3 -11 6 -57 11 -102 11 -73 0 -89 -3 -147 -33 -69 -35 -141 -100 -168
-151 -17 -34 -18 -70 -7 -387 4 -122 10 -198 17 -202 6 -4 -1 -10 -16 -13 -30
-8 -35 -20 -11 -29 8 -3 12 -2 9 4 -3 6 -1 10 4 10 6 0 11 -4 11 -9 0 -12 71
-6 125 10 81 24 225 23 210 -1 -4 -6 2 -9 12 -8 52 4 94 -3 87 -14 -6 -10 -4
-10 7 0 7 6 21 12 32 12 10 0 34 18 54 39 42 48 65 55 94 30 12 -10 26 -19 30
-19 4 0 14 -6 21 -13 26 -27 101 -42 173 -37 94 7 146 45 169 123 26 87 36 90
36 14 0 -46 -5 -78 -16 -95 -26 -44 -101 -93 -152 -101 -50 -7 -159 2 -189 17
-10 4 -46 22 -80 39 -61 31 -61 31 -68 10 -4 -14 -8 -17 -12 -9 -2 6 -9 9 -15
6 -6 -4 -5 -10 3 -15 11 -6 11 -13 3 -26 -17 -28 -104 -29 -193 -2 -83 24
-156 22 -212 -6 -31 -17 -91 -16 -180 2 l-27 5 -6 162 c-4 88 -8 231 -9 317
-2 153 -2 156 27 213 87 173 284 268 464 225 36 -9 197 -103 252 -147 5 -4
-85 -90 -208 -199 l-62 -56 -40 16 c-37 14 -41 14 -49 -2 -6 -10 -13 -53 -17
-97 l-7 -79 26 24 c23 20 33 23 92 20 l67 -4 17 55 c41 128 94 192 206 246 88
43 157 46 247 9 34 -14 64 -25 68 -25 4 0 13 18 20 40 12 36 17 40 49 42 70 3
107 -3 152 -26 l47 -24 18 25 c37 48 174 28 258 -38 l28 -22 46 23 c26 12 73
25 105 28 31 2 57 7 57 9 0 2 -11 25 -24 51 -13 26 -31 72 -41 102 -10 30 -21
59 -26 65 -5 5 -9 17 -9 27 0 10 -10 27 -22 37 -13 10 -36 30 -52 43 l-29 25
72 122 c74 127 78 143 41 176 -20 18 -21 18 -50 -10 -33 -32 -70 -43 -70 -21
0 7 7 19 15 26 8 7 15 16 15 20 0 4 24 33 54 65 l53 58 18 -54 c30 -88 101
-139 175 -125 14 2 28 5 33 5 4 1 7 6 7 12 0 16 53 79 67 79 6 0 14 -8 17 -17
18 -54 151 -92 200 -57 14 11 26 24 26 30 0 6 12 24 26 39 l26 28 46 -44 c26
-24 48 -47 50 -52 2 -4 8 -5 13 -1 5 3 9 0 9 -6 0 -6 4 -8 10 -5 5 3 22 -1 38
-9 16 -8 32 -13 34 -10 3 2 36 7 73 9 72 5 130 28 179 70 33 28 52 26 102 -11
39 -30 99 -55 136 -56 35 -1 42 -11 28 -38 -7 -13 -21 -20 -39 -20 -48 0 -125
31 -152 62 l-26 29 -44 -29 c-54 -37 -127 -62 -198 -69 -33 -4 -69 -16 -89
-30 -19 -12 -52 -28 -73 -33 -22 -6 -39 -15 -39 -20 0 -5 -9 -6 -22 -1 -14 5
-31 3 -47 -6 -14 -7 -33 -13 -41 -13 -8 0 -30 -9 -47 -20 -25 -15 -33 -27 -33
-48 0 -39 -18 -87 -53 -145 -28 -45 -29 -53 -23 -116 l7 -68 -102 -43 -102
-43 23 -19 c29 -24 31 -23 55 15 20 31 23 32 93 35 67 3 74 1 79 -18 7 -25 18
-25 55 1 22 16 38 20 64 16 38 -6 44 7 22 43 -11 17 -10 27 9 60 20 37 20 39
2 30 -11 -6 -19 -7 -19 -1 0 12 29 23 41 15 6 -3 18 3 28 15 10 11 21 18 25
14 3 -3 6 -1 6 6 0 8 6 11 16 7 20 -8 87 21 79 34 -3 5 0 7 8 4 8 -3 37 9 64
25 55 34 64 36 93 21 11 -5 29 -15 41 -21 18 -9 20 -8 14 10 -3 11 -1 30 5 41
16 30 7 34 -29 16 -37 -20 -47 -20 -32 -2 7 8 42 26 79 41 37 15 73 31 80 37
6 6 12 8 12 4 0 -3 18 1 40 10 23 9 44 14 47 11 3 -4 -7 -11 -23 -17 -50 -20
-58 -31 -28 -46 14 -8 30 -12 34 -9 4 2 14 -3 23 -13 13 -15 15 -44 13 -185
l-3 -168 32 -35 32 -35 52 35 c29 20 70 41 92 47 l39 12 0 71 c0 47 5 79 15
92 8 12 11 25 7 29 -4 5 2 5 12 1 14 -5 16 -4 8 6 -20 25 -16 84 11 170 35
109 48 125 114 133 50 7 52 6 68 -24 17 -34 30 -39 39 -16 16 44 150 53 192
14 12 -11 26 -37 33 -59 11 -36 14 -39 31 -27 22 13 27 37 8 37 -6 0 -9 3 -6
6 11 10 128 -59 145 -85 9 -15 16 -38 15 -53 -2 -18 3 -28 11 -28 46 0 118
-168 88 -204 -8 -9 -19 -16 -27 -16 -8 0 -3 -10 11 -25 28 -28 33 -70 10 -95
-14 -16 -11 -21 36 -64 29 -26 57 -45 63 -43 6 2 19 30 29 63 28 90 20 282
-16 383 -73 202 -182 309 -407 399 -69 27 -140 53 -158 57 -30 6 -33 10 -27
32 5 22 1 20 -34 -18 -22 -24 -58 -65 -80 -91 -22 -26 -41 -43 -43 -37 -2 6
-15 1 -31 -11 -27 -22 -38 -13 -14 12 6 7 29 34 50 61 21 26 43 47 48 47 10 0
49 37 49 46 0 13 36 33 58 34 15 0 26 7 29 20 3 11 9 17 15 14 5 -3 24 6 43
20 18 14 40 26 48 26 8 0 26 11 41 25 15 14 32 22 38 19 6 -4 13 -1 17 5 4 6
16 13 27 16 30 7 93 31 100 38 4 4 18 7 30 7 13 0 26 5 30 11 4 8 9 7 15 -2 6
-10 11 -11 17 -3 10 15 62 27 62 14 0 -5 5 -10 11 -10 5 0 7 5 3 11 -5 9 1 10
20 5 20 -5 26 -4 20 5 -5 8 -1 11 13 7 11 -3 28 -1 37 4 10 6 16 5 16 -2 0 -6
30 -10 77 -10 73 0 79 -2 110 -32 18 -18 33 -28 33 -22 0 17 88 7 122 -15 18
-11 28 -21 23 -21 -6 0 -16 5 -23 12 -6 6 -14 9 -17 6 -3 -3 17 -19 45 -36
l50 -31 -15 28 c-44 87 -220 164 -398 174 -55 4 -67 2 -63 -9 3 -8 -1 -14 -9
-14 -8 0 -15 7 -15 16 0 13 -8 15 -47 10 -27 -4 -64 -7 -83 -6 -41 0 -171 -29
-185 -41 -11 -11 2 -11 30 0 11 5 28 5 37 0 11 -6 20 -5 25 4 11 18 41 28 48
16 4 -5 14 -8 22 -7 9 2 18 -2 20 -8 3 -10 -40 -25 -82 -29 -5 0 -19 -6 -30
-12 -11 -6 -45 -18 -75 -28 -68 -22 -180 -77 -240 -118 -59 -41 -140 -118
-140 -134 0 -7 -6 -10 -14 -7 -16 6 -48 -34 -39 -49 3 -6 1 -7 -4 -4 -28 18
-151 -218 -168 -319 -3 -20 -9 -43 -14 -52 -5 -9 -11 -42 -14 -72 -3 -30 -8
-71 -11 -90 -3 -19 -8 -54 -11 -77 -6 -43 -21 -53 -43 -31 -7 7 -12 8 -12 2 0
-5 -4 -3 -9 5 -6 9 -4 23 6 38 14 21 14 23 -1 23 -19 0 -21 29 -5 80 6 19 12
63 14 97 2 53 12 80 60 175 31 62 80 151 109 197 48 80 148 192 208 236 l27
19 -22 25 c-12 13 -16 21 -8 16 11 -6 13 -4 8 9 -4 10 -7 20 -7 22 0 2 -10 -1
-21 -8 -18 -11 -23 -11 -26 0 -3 7 -16 26 -29 42 -25 29 -25 30 -7 57 10 15
22 32 28 36 5 5 -2 6 -16 3 -19 -4 -29 -1 -33 10 -5 12 -2 15 11 10 22 -7 -29
37 -81 71 -103 67 -234 58 -332 -22 -48 -40 -68 -45 -59 -15 4 11 2 20 -4 20
-6 0 -11 -7 -11 -15 0 -21 -11 -19 -50 10 -54 40 -122 58 -203 53 -71 -4 -101
-16 -185 -75 -22 -16 -22 -15 -13 10 11 28 -7 54 -32 44 -29 -11 -47 20 -54
87 -3 37 -10 69 -14 72 -4 2 -6 10 -3 17 6 15 -91 13 -121 -3 -11 -6 -36 -43
-55 -83 -21 -42 -45 -76 -58 -83 -13 -6 -23 -15 -23 -20 -1 -13 -9 -19 -9 -6
0 6 -6 9 -14 6 -30 -11 -23 14 15 57 43 49 46 54 24 63 -8 3 -15 11 -15 18 -1
17 -66 89 -74 81 -3 -3 -6 -1 -6 5 0 18 -95 15 -114 -3 -8 -8 -19 -15 -23 -15
-10 0 -48 -70 -45 -83 2 -5 -2 -6 -8 -2 -5 3 -10 1 -10 -4 0 -16 -18 -13 -38
7 -75 74 -145 104 -242 105 -62 1 -86 -4 -138 -27 -61 -28 -63 -29 -100 -12
-49 22 -72 26 -162 28 -63 1 -85 -3 -137 -26 -71 -32 -109 -67 -99 -92 6 -15
10 -14 34 9 15 14 53 38 86 53 52 24 67 26 130 21 39 -3 85 -11 101 -17 27
-10 28 -12 12 -22 -16 -8 -14 -12 20 -29 45 -23 47 -23 39 -4 -4 10 1 15 15
15 12 0 34 11 50 25 35 29 87 45 147 45 63 0 179 -56 222 -107 44 -52 74 -103
61 -103 -6 0 -11 6 -11 13 0 18 -85 112 -123 135 -21 13 -58 22 -107 25 -72 5
-62 0 35 -16 38 -7 74 -26 87 -47 7 -11 18 -20 24 -20 17 0 67 -77 58 -91 -4
-7 -3 -10 4 -5 14 8 25 -27 18 -56 -3 -13 -3 -17 0 -10 5 10 9 9 20 -5 13 -17
13 -17 14 0 0 10 -5 27 -11 39 -6 11 -8 23 -4 26 3 3 8 -4 12 -16 6 -26 5 -26
55 8 21 14 38 30 38 37 0 6 -16 24 -36 40 -42 34 -41 58 7 117 24 28 38 36 64
36 19 0 38 -7 46 -17 13 -17 12 -17 -4 -4 -16 13 -20 13 -28 0 -11 -18 -12
-32 -1 -25 9 6 52 -30 52 -42 0 -4 -15 -23 -33 -43 l-32 -36 -28 27 c-15 14
-25 28 -22 31 3 3 -2 6 -10 6 -23 0 -18 -12 15 -38 16 -13 30 -30 30 -36 0
-27 39 -11 65 27 15 22 30 40 32 40 6 0 -5 -18 -36 -59 -25 -33 -25 -34 -6
-48 11 -8 27 -18 35 -23 8 -5 13 -11 10 -13 -3 -3 -24 8 -48 24 -30 20 -42 24
-42 14 0 -8 14 -21 30 -30 17 -9 30 -21 31 -28 5 -61 4 -97 -4 -97 -4 0 -5 -5
-1 -11 3 -6 9 -57 11 -113 3 -73 8 -103 19 -109 12 -7 9 -14 -12 -43 -32 -41
-52 -43 -87 -6 -21 22 -28 41 -33 92 -3 36 -9 68 -13 73 -17 17 11 -149 28
-168 20 -23 34 -55 23 -55 -4 0 -22 15 -39 34 -30 30 -34 41 -43 127 -5 52
-10 102 -10 112 0 31 -17 18 -29 -24 -7 -23 -14 -39 -17 -37 -7 8 29 103 43
111 23 14 14 29 -14 23 -16 -3 -22 -3 -15 0 14 7 16 34 2 34 -5 0 -10 -6 -11
-12 -2 -36 -11 -74 -21 -85 -6 -7 -8 -20 -4 -28 3 -8 1 -15 -5 -15 -6 0 -7 -5
-4 -10 4 -6 3 -10 -2 -9 -21 4 -32 -2 -27 -16 10 -26 -93 -148 -150 -177 -37
-19 -38 -19 -31 -1 45 109 78 235 77 295 0 78 -32 149 -91 201 -21 17 -27 27
-16 23 11 -5 27 -9 35 -9 18 0 44 -30 70 -79 11 -20 25 -40 31 -44 12 -7 -31
78 -54 106 -21 27 -69 60 -78 54 -5 -3 -9 -1 -9 4 0 6 -7 13 -16 16 -8 3 -12
2 -9 -4 3 -6 2 -10 -4 -10 -5 0 -13 5 -16 10 -9 15 -36 12 -74 -8 -39 -19 -36
-2 -45 -257 -9 -213 -14 -255 -35 -256 -61 -4 -87 11 -70 42 6 12 4 19 -6 23
-8 3 -14 2 -14 -2 3 -19 -2 -33 -10 -28 -9 6 -20 156 -22 311 -1 79 1 100 12
100 9 0 16 -17 20 -50 l6 -50 1 52 c2 47 -1 54 -28 73 -16 12 -34 19 -39 16
-5 -3 -12 1 -15 10 -4 10 -13 13 -26 9 -11 -4 -20 -2 -20 4 0 20 -66 24 -104
6 -20 -10 -36 -22 -36 -27 0 -5 5 -6 11 -2 7 4 10 1 7 -7 -3 -8 -10 -13 -16
-12 -5 1 -9 -3 -9 -10 1 -33 -4 -51 -11 -40 -4 6 -8 -19 -10 -55 -5 -110 -9
-136 -20 -140 -7 -2 -10 33 -10 105 0 91 -4 117 -23 164 -13 31 -27 56 -30 55
-3 -1 -18 13 -32 29 l-27 30 10 -29 c13 -35 4 -81 -22 -118 -10 -15 -23 -40
-29 -55 -11 -34 -48 -42 -56 -12 -8 28 -18 23 -28 -13 -10 -32 -12 -33 -63
-34 l-53 -1 -28 61 c-16 34 -32 71 -36 84 -4 13 -9 22 -11 20 -8 -9 29 -105
76 -198 58 -113 131 -202 150 -184 9 9 0 22 -34 54 -49 46 -65 81 -19 39 21
-18 24 -19 13 -4 -22 31 -48 55 -59 55 -5 0 -13 4 -16 10 -3 6 1 7 9 4 10 -4
16 -1 16 7 0 8 9 0 20 -17 31 -49 120 -75 159 -48 26 19 53 15 57 -9 1 -9 -2
-15 -6 -12 -5 3 -12 0 -16 -6 -5 -9 3 -10 30 -5 30 6 36 4 36 -10 0 -10 -7
-25 -15 -34 -15 -16 -20 -15 -81 16 -46 25 -72 32 -90 28 -25 -6 -25 -7 -4
-21 23 -16 26 -45 6 -62 -12 -10 -20 -9 -41 5 -24 16 -25 16 -19 -1 6 -15 4
-16 -15 -5 -19 10 -20 14 -9 28 12 16 11 16 -6 2 -16 -13 -20 -12 -37 10 -10
14 -26 32 -34 41 -8 9 -15 21 -15 27 0 5 -5 12 -11 14 -7 2 -6 8 4 16 12 10
19 5 42 -28 28 -41 43 -54 26 -22 -5 9 -20 31 -33 49 -24 31 -25 31 -39 12 -8
-11 -13 -29 -11 -41 3 -14 0 -18 -9 -13 -8 5 -10 4 -5 -4 4 -6 11 -9 16 -6 4
3 11 -2 14 -11 4 -10 2 -13 -7 -8 -6 4 -5 -1 4 -12 22 -26 31 -80 16 -92 -7
-6 -21 -12 -32 -14 -11 -1 -25 -9 -30 -16 -6 -7 -15 -13 -20 -12 -22 5 -35 -1
-60 -26 -20 -20 -29 -23 -39 -15 -10 8 -17 7 -27 -5 -7 -9 -24 -20 -37 -25
-13 -5 -26 -18 -29 -29 -3 -11 -9 -17 -14 -14 -5 3 -9 -2 -9 -10 0 -9 -5 -16
-11 -16 -8 0 -7 -6 2 -17 15 -17 15 -20 -6 -43 -7 -8 -14 -18 -14 -22 -1 -5
-2 -11 -2 -15 -1 -5 -1 -37 0 -73 0 -53 4 -68 21 -82 25 -20 26 -29 3 -22 -16
5 -16 4 0 -9 12 -10 17 -25 15 -44 -3 -25 -6 -28 -33 -24 -16 1 -39 13 -50 26
-12 12 -28 25 -36 28 -8 3 -1 5 15 4 24 -2 29 2 32 23 4 23 3 24 -10 6 -8 -10
-19 -15 -25 -11 -14 8 -14 62 0 67 16 5 18 86 3 92 -7 3 -15 0 -17 -7 -3 -7
-10 0 -16 15 -6 15 -8 35 -4 44 3 9 0 20 -7 24 -7 5 -2 8 14 8 15 0 35 7 45
16 23 21 17 57 -7 49 -10 -3 0 12 21 33 20 22 37 48 37 57 0 19 -15 23 -25 7
-9 -15 -25 -12 -25 5 0 8 -5 15 -12 15 -6 0 -4 7 6 18 15 18 15 20 -1 35 -24
21 -68 37 -102 37 -15 0 -32 5 -39 12 -9 9 -12 9 -12 0 0 -6 11 -14 25 -18 31
-8 31 -17 1 -57 -13 -18 -35 -64 -49 -103 -14 -40 -33 -88 -42 -108 -17 -35
-16 -56 5 -111 l10 -25 59 45 c32 25 63 45 68 45 4 0 14 -14 22 -30 11 -26 11
-34 -2 -53 -8 -13 -17 -32 -20 -42 -3 -12 -5 -6 -6 15 -2 54 -28 82 -35 38 -1
-7 -11 -23 -23 -35 -19 -19 -22 -20 -38 -4 -45 44 47 -121 118 -213 29 -38 35
-51 26 -62 -15 -18 -39 -5 -77 43 -37 48 -105 175 -122 228 -7 22 -18 54 -25
70 -21 48 -35 97 -31 104 3 4 -6 47 -19 96 -19 74 -21 91 -9 93 18 4 18 20 0
54 -8 15 -22 60 -31 100 -9 40 -20 89 -26 110 -10 39 -26 154 -35 258 -7 79
-11 86 -34 65 -12 -11 -20 -13 -25 -6 -3 6 -15 11 -26 11 -18 0 -19 1 -3 25
21 32 47 39 82 21 l29 -15 6 -128 c9 -191 27 -235 23 -58 -2 97 -8 151 -18
175 -10 23 -12 43 -7 58 5 12 8 37 7 55 -1 19 2 39 6 45 13 21 -3 12 -18 -10z
m-170 -236 c-22 -23 -29 -10 -9 18 11 16 18 19 21 11 2 -7 -3 -20 -12 -29z
m2684 19 c0 -6 -4 -12 -10 -16 -5 -3 -7 -11 -5 -18 2 -7 6 -43 9 -81 4 -38 9
-73 12 -77 11 -19 23 -8 20 19 -2 15 -1 21 1 15 2 -7 19 -13 36 -13 24 0 28
-3 19 -12 -7 -7 -12 -27 -12 -45 0 -31 -2 -33 -34 -33 l-35 0 0 -144 c0 -117
3 -145 14 -150 8 -3 15 -11 15 -18 0 -21 -43 -58 -67 -58 -30 0 -66 36 -60 61
3 10 1 17 -3 14 -5 -3 -11 14 -13 37 l-4 43 -1 -48 c-1 -27 3 -57 9 -68 6 -11
12 -29 14 -40 3 -16 1 -17 -14 -9 -37 19 -44 63 -38 211 l7 139 -31 0 c-31 0
-31 1 -25 38 3 20 6 45 6 54 0 9 12 23 28 30 19 9 39 37 67 95 35 73 43 82 68
83 15 0 27 -4 27 -9z m-2620 -8 c0 -5 -5 -15 -10 -23 -8 -12 -10 -11 -10 8 0
12 5 22 10 22 6 0 10 -3 10 -7z m2360 -8 c20 -24 6 -28 -15 -5 -10 11 -13 20
-8 20 6 0 16 -7 23 -15z m-2326 -9 c-3 -8 0 -24 6 -37 8 -15 12 -88 11 -233 0
-116 3 -238 8 -271 19 -128 51 -302 65 -345 18 -60 81 -200 150 -338 31 -61
56 -114 56 -117 0 -15 -42 19 -50 41 -5 13 -14 24 -20 24 -5 0 -10 7 -10 15 0
8 -4 15 -9 15 -5 0 -8 8 -7 18 0 9 -5 16 -12 14 -8 -1 -11 1 -8 6 3 5 -8 35
-23 68 -61 124 -79 171 -70 185 10 16 -9 42 -24 32 -6 -3 -7 -1 -3 6 4 6 3 26
-3 44 -6 17 -13 46 -15 62 -3 17 -7 41 -11 55 -3 14 -8 45 -11 70 -3 25 -10
53 -15 62 -5 10 -11 56 -14 103 -2 47 -7 90 -11 96 -3 5 -3 17 0 26 4 9 1 20
-6 25 -11 6 -11 10 0 16 14 10 13 82 -1 82 -5 0 -6 -16 -2 -36 4 -24 3 -34 -4
-29 -17 10 -13 91 4 105 11 9 14 36 14 119 -2 129 -1 131 11 131 5 0 7 -6 4
-14z m-103 -114 c-7 -23 -17 -39 -26 -39 -20 0 -19 5 7 63 25 55 36 40 19 -24z
m1279 17 c0 -5 -9 -22 -20 -37 -11 -15 -29 -56 -39 -92 -13 -44 -21 -60 -26
-49 -9 23 11 91 35 119 11 12 17 27 14 31 -3 5 0 9 5 9 6 0 11 9 11 21 0 11 5
17 10 14 6 -3 10 -11 10 -16z m203 14 c3 -5 -8 -8 -24 -8 -16 0 -29 3 -29 8 0
4 11 7 24 7 14 0 27 -3 29 -7z m370 -15 c-41 -7 -53 -14 -56 -31 -4 -19 -4
-18 -6 5 -1 30 11 36 74 36 38 0 38 -1 -12 -10z m-313 -8 c18 -12 2 -12 -25 0
-13 6 -15 9 -5 9 8 0 22 -4 30 -9z m-151 -54 c-14 -32 -20 -63 -17 -92 2 -24
0 -44 -4 -44 -17 0 -8 111 13 151 28 56 34 44 8 -15z m2246 20 c28 -13 61 -36
75 -51 22 -26 20 -25 -18 5 -44 35 -70 35 -80 -1 -3 -9 1 -7 9 4 13 16 16 15
51 -13 33 -27 36 -33 25 -51 -6 -10 -16 -18 -22 -16 -5 2 -16 -2 -23 -9 -10
-11 -20 -9 -55 8 -23 12 -45 26 -48 30 -3 5 -22 11 -43 15 -26 4 -41 1 -55
-11 -33 -30 1 -135 44 -136 6 0 4 4 -4 9 -25 16 -21 39 9 44 15 4 35 13 43 22
21 20 33 19 50 -6 10 -13 17 -16 22 -10 4 8 12 8 26 0 11 -6 30 -12 41 -14 27
-6 78 -60 78 -84 0 -9 -9 -27 -20 -38 -14 -15 -16 -23 -7 -26 7 -3 6 -6 -4 -6
-9 -1 -23 -8 -30 -17 -12 -15 -11 -16 11 -10 19 6 21 5 10 -3 -8 -6 -23 -11
-32 -11 -11 0 -15 -5 -12 -15 4 -8 11 -12 17 -8 6 3 7 1 3 -5 -4 -7 -16 -17
-28 -23 -15 -8 -19 -8 -14 0 4 6 2 11 -4 11 -7 0 -14 -8 -17 -19 -7 -26 -72
-45 -129 -37 -54 7 -138 52 -128 68 4 7 -7 8 -37 3 l-43 -7 18 28 c35 54 74
77 131 78 52 1 52 1 37 -21 -16 -26 -23 -28 -40 -11 -8 8 -12 8 -12 1 0 -10
23 -25 42 -27 3 -1 10 -4 14 -8 15 -15 25 -8 15 11 -13 23 -2 36 13 15 7 -8
30 -18 53 -21 39 -5 42 -4 49 21 3 15 1 32 -5 40 -16 19 5 32 24 16 18 -15 20
-72 4 -103 -11 -21 -10 -21 6 -5 27 26 25 91 -4 122 -28 30 -61 33 -97 10 -14
-10 -47 -18 -75 -20 -41 -2 -55 2 -79 23 -19 16 -30 34 -30 51 -1 23 -2 25
-13 11 -7 -8 -22 -18 -33 -21 -19 -5 -21 -2 -18 26 4 31 -2 45 -55 118 l-25
33 28 -25 c15 -14 36 -41 46 -60 l18 -35 21 46 c21 45 91 108 142 128 43 17
111 12 164 -13z m-464 -16 c22 -12 38 -24 35 -28 -4 -3 -12 0 -18 6 -17 17
-24 15 -25 -7 -1 -14 3 -18 13 -14 18 7 46 -16 37 -30 -3 -5 -1 -7 5 -3 25 15
72 -115 63 -179 -10 -79 -125 -212 -162 -189 -8 5 -9 3 -4 -6 6 -10 -8 -11
-71 -6 -114 10 -113 10 -111 17 1 4 -9 17 -23 30 -14 13 -33 35 -43 49 -9 13
-17 20 -17 15 0 -6 16 -34 36 -63 20 -30 34 -56 31 -58 -10 -10 -65 47 -91 96
-35 65 -39 163 -8 232 23 54 92 123 147 150 51 24 145 18 206 -12z m-1883 3
c0 -10 1 -43 2 -73 1 -30 -2 -66 -8 -80 -9 -24 -9 -24 -14 7 -2 18 -1 30 4 27
4 -3 8 2 8 10 0 9 -6 16 -12 16 -10 0 -9 3 1 9 7 5 10 14 7 20 -4 6 -12 8 -18
5 -5 -4 -4 4 3 17 7 13 14 29 15 34 2 20 4 25 8 25 3 0 5 -8 4 -17z m245 -9
c9 -4 17 -12 17 -19 0 -8 7 -20 15 -28 12 -13 12 -16 1 -20 -16 -6 -11 -84 5
-101 5 -6 9 -41 9 -79 0 -54 -3 -67 -12 -60 -7 6 -29 15 -48 22 -88 28 -143
228 -80 291 19 19 24 18 93 -6z m400 -11 c68 -72 80 -160 37 -281 -12 -31 -25
-74 -29 -95 -5 -21 -14 -44 -21 -50 -10 -9 -11 -7 -5 13 3 14 3 20 -2 13 -15
-21 -38 -18 -67 11 l-28 29 7 156 c3 86 8 167 10 181 1 14 3 31 4 38 2 24 66
14 94 -15z m854 -30 c-3 -10 -5 -4 -5 12 0 17 2 24 5 18 2 -7 2 -21 0 -30z
m-2823 -32 c-9 -28 -18 -51 -20 -51 -8 0 9 85 19 98 18 23 18 5 1 -47z m4489
-21 c-6 -21 -37 -27 -48 -10 -3 6 3 10 14 10 11 0 23 5 26 10 10 16 14 12 8
-10z m-2013 -16 c0 -8 -4 -12 -10 -9 -5 3 -10 13 -10 21 0 8 5 12 10 9 6 -3
10 -13 10 -21z m-1190 12 c0 -3 -4 -8 -10 -11 -5 -3 -10 -1 -10 4 0 6 5 11 10
11 6 0 10 -2 10 -4z m-90 -53 c0 -13 -4 -23 -9 -23 -10 0 -21 57 -12 65 8 8
21 -18 21 -42z m2554 36 c-3 -6 9 -27 28 -47 34 -36 59 -80 38 -67 -6 3 -10
12 -10 20 0 7 -16 27 -36 44 -24 19 -35 35 -31 45 4 9 9 16 12 16 4 0 3 -5 -1
-11z m-2137 -31 c-3 -8 -6 -5 -6 6 -1 11 2 17 5 13 3 -3 4 -12 1 -19z m210 0
c-3 -8 -6 -5 -6 6 -1 11 2 17 5 13 3 -3 4 -12 1 -19z m1893 6 c0 -8 -4 -12
-10 -9 -5 3 -10 10 -10 16 0 5 5 9 10 9 6 0 10 -7 10 -16z m-2291 -49 c0 -5
-4 -3 -9 5 -5 8 -9 22 -9 30 0 16 17 -16 18 -35z m1111 5 c5 -55 0 -140 -8
-140 -4 0 -9 42 -11 93 -1 60 1 89 7 82 6 -5 11 -21 12 -35z m-63 -37 c-2 -16
-4 -5 -4 22 0 28 2 40 4 28 2 -13 2 -35 0 -50z m-1087 13 c0 -3 -4 -8 -10 -11
-5 -3 -10 -1 -10 4 0 6 5 11 10 11 6 0 10 -2 10 -4z m2024 -75 c-5 -5 -64 53
-64 63 0 2 8 6 18 8 12 3 22 -7 34 -31 9 -20 15 -38 12 -40z m-2216 -4 c-1
-19 -7 -34 -12 -34 -6 0 -20 -4 -31 -9 -18 -7 -17 -6 3 16 12 13 22 32 22 42
0 10 5 18 10 18 6 0 10 -15 8 -33z m54 4 c-1 -6 15 -19 35 -29 21 -9 41 -22
45 -28 5 -7 25 -10 51 -7 34 4 46 1 57 -13 14 -17 14 -18 -2 -5 -12 9 -18 10
-18 2 0 -6 5 -11 10 -11 6 0 10 -4 10 -10 0 -5 -9 -10 -21 -10 -11 0 -17 -4
-14 -10 9 -14 -26 -1 -48 19 -15 12 -20 13 -26 2 -10 -16 -31 -6 -31 14 0 23
-20 28 -41 9 -18 -16 -25 -11 -20 19 2 11 -17 9 -24 -3 -3 -5 -11 -10 -17 -10
-7 0 -6 5 2 15 6 8 9 19 5 25 -3 5 -2 10 4 10 5 0 13 9 16 21 7 20 32 21 27 0z
m108 5 c0 -21 -20 -30 -33 -17 -9 9 -8 14 3 21 21 14 30 12 30 -4z m1117 -8
c-3 -8 -6 -5 -6 6 -1 11 2 17 5 13 3 -3 4 -12 1 -19z m-2440 -10 c-3 -8 -6 -5
-6 6 -1 11 2 17 5 13 3 -3 4 -12 1 -19z m1358 -8 c-3 -5 -11 -10 -16 -10 -6 0
-7 5 -4 10 3 6 11 10 16 10 6 0 7 -4 4 -10z m1948 -5 c-3 -9 -8 -14 -10 -11
-3 3 -2 9 2 15 9 16 15 13 8 -4z m-1132 -12 c-17 -32 -40 -58 -41 -47 0 11 38
64 46 64 3 0 0 -8 -5 -17z m-2179 -60 c-7 -65 -12 -67 -12 -5 0 29 4 52 9 52
5 0 6 -21 3 -47z m1438 37 c0 -5 6 -7 14 -4 7 3 16 -2 19 -10 9 -22 -13 -20
-43 4 -20 16 -22 20 -7 20 9 0 17 -4 17 -10z m1315 -19 l20 -24 -22 14 c-13 8
-23 20 -23 28 0 8 1 12 3 10 1 -2 11 -15 22 -28z m-284 -8 c13 -16 12 -17 -3
-4 -17 13 -22 21 -14 21 2 0 10 -8 17 -17z m-1026 -13 c9 -15 -16 -43 -27 -32
-10 10 0 42 12 42 5 0 12 -5 15 -10z m-981 -8 c-6 -4 -15 -21 -18 -39 -8 -33
-32 -61 -43 -49 -4 3 2 19 13 34 11 15 23 35 27 45 3 9 12 17 19 17 9 0 10 -2
2 -8z m722 -20 c-4 -3 -14 2 -24 12 -16 18 -16 18 6 6 13 -6 21 -14 18 -18z
m403 12 c2 -2 2 -7 -1 -10 -4 -3 -19 2 -35 11 l-28 16 30 -6 c16 -4 32 -9 34
-11z m1784 -11 c-1 -6 5 -10 14 -9 9 0 18 -5 20 -11 8 -23 -23 -14 -48 13 -22
24 -22 26 -4 22 11 -2 19 -9 18 -15z m-2408 -7 c18 -13 18 -14 -1 -24 -30 -16
-59 -8 -62 16 -3 17 2 22 20 22 13 0 33 -6 43 -14z m580 -2 c29 -19 34 -54 7
-54 -24 0 -94 49 -87 61 9 14 53 11 80 -7z m105 1 c0 -8 -7 -15 -15 -15 -26 0
-18 20 13 29 1 1 2 -6 2 -14z m444 -16 c-10 -11 -27 -25 -38 -31 -10 -5 -3 6
15 25 35 37 56 43 23 6z m-1216 -6 c-4 -47 -98 -134 -98 -91 0 9 -3 9 -12 -1
-11 -10 -10 -14 5 -22 23 -13 22 -61 -1 -90 -17 -20 -17 -25 -4 -51 10 -22 11
-33 3 -41 -15 -15 -14 -47 2 -47 7 0 24 -23 37 -51 25 -57 20 -69 -33 -69 -24
0 -31 7 -50 48 -12 26 -23 73 -25 107 -2 33 -3 67 -4 75 -3 47 54 181 92 215
20 18 65 42 82 44 4 1 7 -11 6 -26z m287 4 c15 -4 14 -5 -7 -6 -21 -1 -28 4
-28 17 0 11 3 13 8 6 4 -7 16 -14 27 -17z m1265 -28 c-7 -11 -14 -18 -17 -15
-3 3 0 12 7 21 18 21 23 19 10 -6z m-1100 -15 c0 -8 -4 -12 -10 -9 -5 3 -10
10 -10 16 0 5 5 9 10 9 6 0 10 -7 10 -16z m290 -2 c0 -51 -94 -60 -120 -11
-10 17 -9 17 18 2 32 -19 82 -11 82 12 0 8 5 15 10 15 6 0 10 -8 10 -18z
m1085 8 c-3 -5 -14 -10 -23 -9 -14 0 -13 2 3 9 27 11 27 11 20 0z m-2698 -62
c-2 -13 -4 -3 -4 22 0 25 2 35 4 23 2 -13 2 -33 0 -45z m1049 40 c22 -10 64
-68 64 -88 0 -5 -14 -17 -31 -25 -25 -14 -69 -84 -69 -113 0 -14 29 34 30 49
0 21 29 46 63 54 21 6 31 3 42 -11 21 -28 18 -43 -9 -54 -27 -10 -50 -45 -41
-60 9 -14 25 -2 19 14 -14 36 78 53 155 29 87 -27 93 -38 69 -127 -10 -37 -9
-47 2 -61 12 -15 25 -16 85 -10 38 4 88 8 110 9 l40 1 3 -53 c2 -40 -1 -54
-12 -58 -9 -3 -16 -17 -16 -31 0 -28 -55 -83 -82 -83 -10 0 -62 7 -116 15
-120 18 -205 51 -346 136 -108 65 -158 114 -201 198 -23 45 -22 126 3 183 11
25 17 50 14 54 -4 4 -1 4 7 -1 9 -5 18 -2 26 8 31 43 124 55 191 25z m143 4
c-9 -1 -21 -14 -27 -27 -12 -25 -32 -34 -32 -15 0 20 50 61 63 53 9 -6 8 -8
-4 -11z m226 -3 c10 -30 -1 -35 -40 -16 -45 21 -45 37 -1 37 26 0 36 -5 41
-21z m35 11 c0 -5 -4 -10 -9 -10 -6 0 -13 5 -16 10 -3 6 1 10 9 10 9 0 16 -4
16 -10z m230 -6 c0 -8 -4 -12 -10 -9 -5 3 -10 10 -10 16 0 5 5 9 10 9 6 0 10
-7 10 -16z m235 -4 c8 -13 -5 -13 -25 0 -13 8 -13 10 2 10 9 0 20 -4 23 -10z
m1112 4 c-3 -3 -12 -4 -19 -1 -8 3 -5 6 6 6 11 1 17 -2 13 -5z m-1562 -24 c3
-5 -3 -10 -14 -10 -12 0 -21 5 -21 10 0 6 6 10 14 10 8 0 18 -4 21 -10z m339
0 c26 -1 28 -2 13 -11 -12 -7 -31 -6 -65 5 -36 12 -39 15 -13 11 18 -3 48 -5
65 -5z m-1404 -10 c0 -5 -5 -10 -11 -10 -5 0 -7 5 -4 10 3 6 8 10 11 10 2 0 4
-4 4 -10z m865 0 c16 -7 13 -9 -17 -9 -25 -1 -40 -7 -46 -18 -20 -40 13 -77
87 -98 31 -9 69 -29 84 -43 27 -25 28 -31 23 -83 -5 -45 -3 -60 9 -73 9 -9 21
-16 26 -16 5 0 9 -4 9 -10 0 -5 -11 -10 -25 -10 -15 0 -25 6 -25 15 0 8 -6 12
-14 9 -20 -8 -30 14 -16 31 7 9 12 36 12 62 -1 39 -6 51 -29 69 -15 12 -45 27
-65 33 -53 16 -108 71 -108 108 0 16 3 33 7 36 9 10 64 7 88 -3z m661 -27 c1
-15 -3 -20 -13 -16 -12 5 -12 7 -2 14 10 6 7 11 -11 18 l-25 11 25 -3 c18 -1
25 -8 26 -24z m33 5 c10 -27 2 -46 -10 -27 -10 15 -12 49 -4 49 3 0 9 -10 14
-22z m2111 0 c5 -13 9 -17 9 -10 1 9 11 12 30 9 40 -7 46 -12 61 -47 11 -26
15 -28 28 -18 13 11 15 10 9 -5 -6 -15 -3 -17 13 -12 15 5 20 2 20 -10 0 -11
-5 -15 -16 -11 -8 3 -12 2 -9 -4 10 -16 -7 -12 -43 10 -18 11 -43 22 -55 24
-12 3 -22 5 -22 6 0 2 -16 6 -65 18 -27 6 -34 13 -32 28 2 15 1 16 -7 4 -12
-18 -24 -9 -15 13 3 9 20 18 37 20 18 2 36 5 40 5 4 1 12 -8 17 -20z m-2716
-20 c38 -23 62 -31 96 -30 25 0 49 -2 54 -5 12 -8 -34 -32 -63 -33 -32 0 -111
47 -111 66 0 8 -4 13 -9 10 -5 -3 -14 1 -21 9 -19 23 -2 18 54 -17z m316 22
c0 -5 -9 -10 -20 -10 -11 0 -20 5 -20 10 0 6 9 10 20 10 11 0 20 -4 20 -10z
m200 -25 c-10 -12 -10 -16 1 -19 40 -13 41 -14 13 -15 -38 -1 -55 27 -28 46
22 16 31 8 14 -12z m-330 5 c0 -5 -4 -10 -10 -10 -5 0 -10 5 -10 10 0 6 5 10
10 10 6 0 10 -4 10 -10z m196 -1 c3 -6 17 -8 30 -5 22 6 64 -11 64 -25 0 -6
-118 -1 -137 6 -19 6 -16 23 5 28 28 8 31 7 38 -4z m-575 -21 c6 -13 21 -33
32 -45 11 -13 16 -23 10 -23 -13 0 -73 66 -73 80 0 18 19 10 31 -12z m491 -14
c17 -11 160 -26 228 -24 56 1 67 -2 82 -22 18 -23 19 -23 33 -4 8 11 15 25 15
32 0 19 30 25 37 7 8 -21 -12 -118 -39 -185 -31 -77 -33 -79 -75 -62 -19 8
-32 10 -28 5 3 -7 0 -8 -9 -5 -9 3 -13 11 -9 17 3 6 1 7 -5 3 -6 -4 -26 1 -44
11 -18 9 -37 16 -42 15 -4 -2 -16 3 -25 10 -12 9 -11 7 2 -9 20 -23 134 -73
167 -73 30 0 24 -23 -18 -66 -86 -88 -126 -113 -211 -133 -45 -10 -84 -15 -86
-10 -3 4 1 25 10 45 8 20 15 46 14 58 -1 17 -2 16 -9 -7 -5 -16 -13 -34 -18
-40 -6 -7 -12 -23 -14 -37 -2 -19 -11 -26 -38 -32 -53 -11 -68 -2 -36 23 14
11 26 26 26 33 0 7 9 24 19 38 13 16 18 33 14 48 -5 19 -3 21 16 15 12 -4 21
-2 21 4 0 20 20 11 30 -13 5 -13 14 -27 20 -31 6 -4 15 -17 20 -29 6 -16 8
-10 7 24 -2 39 1 46 25 58 31 14 47 57 29 75 -8 8 -22 8 -54 0 -35 -10 -45 -9
-59 4 -10 9 -18 26 -18 37 -1 21 -1 21 -15 2 -15 -19 -15 -19 -15 2 0 15 -6
22 -20 22 -10 0 -27 9 -37 20 -18 19 -19 19 -31 0 -9 -16 -9 -21 4 -28 13 -7
9 -12 -19 -25 -42 -20 -47 -20 -70 -3 -15 12 -16 18 -6 40 15 31 23 33 35 7 8
-18 11 -18 29 -5 19 15 20 16 1 29 -21 16 -15 45 9 45 9 0 26 -5 38 -11 16 -9
22 -9 25 0 5 15 32 14 51 -3 20 -17 75 -31 66 -17 -3 7 0 8 9 5 9 -3 13 -11 9
-17 -3 -6 -1 -7 5 -3 16 10 54 -12 46 -26 -4 -7 -2 -8 5 -4 6 4 19 2 27 -5 10
-8 18 -9 25 -2 13 13 -64 81 -101 89 -80 18 -100 26 -100 39 0 19 -10 19 -37
0 -19 -13 -22 -13 -27 0 -3 8 -15 15 -26 15 -27 0 -26 17 3 26 32 11 87 5 113
-13 13 -8 28 -11 35 -7 18 10 -49 43 -91 44 -29 1 -32 3 -15 10 20 9 79 5 97
-6z m2084 -23 c-11 -19 -15 -31 -8 -27 7 4 12 3 12 -3 0 -19 -17 -20 -34 -3
-15 17 -14 20 3 39 11 12 18 23 16 25 -2 2 4 4 14 4 17 0 16 -3 -3 -35z
m-3729 -28 c-3 -10 -5 -2 -5 17 0 19 2 27 5 18 2 -10 2 -26 0 -35z m3933 -1
c0 -15 -11 -21 -27 -15 -12 5 -12 7 -1 14 17 11 28 11 28 1z m358 -1 c9 -5 32
-15 49 -21 18 -7 30 -16 27 -21 -3 -5 1 -9 9 -9 8 0 20 -7 27 -15 10 -12 9
-15 -4 -15 -10 0 -15 -4 -12 -9 3 -5 -1 -11 -9 -14 -9 -4 -12 -1 -8 9 3 10 0
12 -10 8 -9 -3 -29 9 -51 31 -20 19 -36 33 -36 29 0 -3 -7 -1 -15 6 -31 25 -6
41 33 21z m-1271 -40 c-18 -14 -41 -34 -51 -43 -11 -10 -27 -19 -35 -20 -9 0
-21 -2 -27 -2 -6 -1 -22 -9 -37 -19 -14 -9 -31 -17 -37 -17 -5 0 -10 -4 -10
-10 0 -5 -6 -10 -14 -10 -7 0 -19 -7 -26 -15 -9 -11 -16 -13 -24 -5 -5 5 -20
10 -33 10 -26 0 -27 26 -4 54 13 15 16 15 39 0 24 -16 25 -16 18 9 -3 14 -8
32 -11 39 -7 18 62 23 82 6 10 -8 17 -8 25 0 9 9 9 12 -1 12 -11 0 -11 3 -1
15 16 20 77 30 94 16 14 -12 46 -5 46 9 0 5 9 6 20 3 17 -5 16 -8 -13 -32z
m671 8 c-20 -13 -28 -11 -22 5 3 8 12 12 21 9 12 -5 12 -7 1 -14z m-28 -26 c0
5 5 5 10 2 8 -5 8 -11 0 -20 -8 -9 -8 -14 0 -17 8 -2 8 -11 1 -31 -6 -16 -15
-26 -20 -23 -18 11 -32 -20 -21 -48 7 -20 7 -25 -2 -20 -7 5 -9 2 -5 -8 6 -18
-10 -38 -31 -38 -9 0 -11 6 -6 23 4 12 8 31 9 42 4 54 17 85 36 85 10 0 19 5
19 10 0 6 -4 10 -9 10 -4 0 -6 12 -3 26 3 19 7 22 13 12 5 -7 9 -9 9 -5z
m-3653 -25 c-3 -8 -6 -5 -6 6 -1 11 2 17 5 13 3 -3 4 -12 1 -19z m4420 -34
c-9 -9 -28 6 -21 18 4 6 10 6 17 -1 6 -6 8 -13 4 -17z m-4362 -149 c10 -33 24
-71 31 -85 7 -14 33 -68 57 -120 24 -52 64 -131 89 -175 25 -44 57 -100 71
-125 14 -25 28 -56 32 -69 7 -21 4 -20 -22 10 -78 92 -239 394 -268 504 -10
39 -22 72 -26 75 -5 3 -11 39 -14 80 l-5 75 18 -55 c11 -30 27 -82 37 -115z
m2892 99 c-3 -3 -12 -4 -19 -1 -8 3 -5 6 6 6 11 1 17 -2 13 -5z m-1376 -29
c24 -9 51 -23 60 -31 12 -11 23 -13 36 -6 10 5 30 12 46 16 36 8 37 -16 2 -32
-38 -17 -59 -15 -91 11 -25 19 -40 22 -108 21 -79 -2 -79 -2 -55 17 29 23 54
24 110 4z m1252 -32 c-19 -7 -16 -21 5 -25 11 -3 0 -12 -33 -26 -27 -13 -57
-26 -65 -31 -11 -6 -16 -4 -16 9 0 11 6 15 18 12 10 -2 18 1 18 7 0 6 11 11
25 11 28 0 35 20 8 20 -14 1 -12 4 7 15 14 8 30 14 35 14 6 0 4 -3 -2 -6z
m817 -58 c0 -8 -9 -15 -20 -15 -11 0 -23 -7 -26 -15 -4 -8 -10 -15 -14 -15 -9
0 -7 15 5 43 9 21 55 23 55 2z m864 -11 c20 -8 21 -21 1 -21 -8 0 -16 6 -19
14 -6 15 -4 15 18 7z m-867 -36 c-3 -8 -6 -5 -6 6 -1 11 2 17 5 13 3 -3 4 -12
1 -19z m-1482 -28 c-3 -5 -1 -10 4 -10 21 0 10 -21 -16 -33 -16 -6 -30 -14
-33 -18 -17 -22 -149 -33 -168 -15 -12 12 10 36 33 36 14 0 33 8 44 19 13 13
29 17 55 15 20 -3 36 0 36 6 0 5 12 10 26 10 14 0 23 -4 19 -10z m584 -31
c-24 -15 -45 -11 -24 5 11 8 24 12 28 9 5 -3 3 -9 -4 -14z m-2599 -20 c0 -6
-4 -7 -10 -4 -5 3 -10 11 -10 16 0 6 5 7 10 4 6 -3 10 -11 10 -16z m738 -10
c31 -11 31 -11 12 -32 -11 -11 -20 -25 -20 -31 0 -5 6 -1 14 9 13 18 14 18 38
-1 l26 -20 -40 -33 -39 -33 -53 26 c-29 14 -62 26 -74 26 -30 0 -72 -18 -72
-30 0 -6 5 -8 10 -5 12 7 9 -39 -3 -51 -3 -4 -4 3 -2 15 2 13 0 19 -6 15 -6
-3 -9 -53 -8 -120 1 -63 5 -111 10 -108 5 3 9 -7 9 -22 0 -27 -1 -27 -16 -8
-14 17 -15 17 -10 1 3 -10 6 -23 6 -28 0 -6 3 -8 8 -6 4 3 7 -24 7 -59 0 -36
4 -63 10 -61 5 1 9 16 8 32 -1 20 0 23 4 8 4 -21 8 -22 51 -15 106 16 183 8
255 -25 37 -18 67 -35 67 -39 0 -8 -70 -104 -76 -104 -7 0 4 17 33 56 13 17
23 35 23 41 0 11 -70 46 -78 38 -3 -3 9 -11 26 -17 18 -7 32 -15 32 -19 0 -3
-17 -26 -38 -50 l-39 -43 -59 18 c-123 39 -317 24 -356 -26 -17 -22 -18 -11
-18 244 0 147 4 278 9 291 23 60 111 131 199 163 46 16 109 18 150 3z m2192
-9 c13 -8 12 -10 -2 -10 -29 0 -21 -15 18 -33 21 -10 32 -22 28 -28 -4 -7 -1
-10 7 -7 13 5 89 -29 89 -39 0 -2 -6 -1 -12 3 -10 5 -10 3 0 -7 7 -8 17 -15
23 -15 5 -1 14 -2 19 -3 5 0 9 -4 9 -8 -3 -19 2 -33 12 -33 5 0 7 5 4 10 -3 6
-4 10 0 10 3 0 10 -11 15 -25 5 -14 15 -24 22 -23 7 2 13 -4 13 -12 0 -8 6
-14 13 -13 7 2 11 0 11 -5 -1 -4 0 -10 1 -14 1 -5 3 -11 4 -15 1 -5 17 -24 35
-42 26 -28 32 -41 27 -63 -3 -15 -1 -30 5 -34 6 -3 8 -12 5 -20 -3 -8 -1 -14
4 -14 6 0 10 7 10 15 0 22 18 18 31 -6 9 -17 8 -25 -4 -36 -15 -16 -42 -9 -32
8 4 5 -1 9 -10 9 -10 0 -13 -5 -9 -12 14 -23 10 -60 -8 -72 -10 -6 -18 -16
-18 -23 0 -15 -69 -80 -103 -98 -39 -20 -119 -28 -153 -15 -16 6 -29 10 -29 9
0 -12 -63 55 -86 90 -16 25 -29 38 -29 30 0 -16 75 -130 93 -141 7 -4 7 -8 2
-8 -22 0 -82 60 -110 111 -25 45 -30 65 -29 119 0 41 7 77 18 98 28 54 85 110
124 123 55 18 67 42 30 56 -34 12 -117 67 -118 76 0 5 12 25 28 45 15 20 21
33 15 28 -7 -4 -27 -27 -43 -52 -17 -24 -35 -42 -41 -39 -15 10 19 77 54 107
35 30 45 32 67 18z m50 -26 c0 -2 -7 -4 -15 -4 -8 0 -15 4 -15 10 0 5 7 7 15
4 8 -4 15 -8 15 -10z m-444 -15 c19 -21 19 -21 -8 -8 -15 6 -25 16 -22 20 7
12 8 12 30 -12z m500 -20 c19 -11 34 -23 34 -25 0 -5 -44 17 -70 35 -28 20 3
11 36 -10z m1354 1 c0 -5 -4 -10 -10 -10 -5 0 -10 5 -10 10 0 6 5 10 10 10 6
0 10 -4 10 -10z m-4330 -41 c0 -6 -4 -7 -10 -4 -5 3 -10 11 -10 16 0 6 5 7 10
4 6 -3 10 -11 10 -16z m3120 -69 c9 -8 30 -33 46 -55 18 -26 5 -15 -38 30 -85
87 -89 100 -8 25z m-3061 -55 c0 -5 -11 10 -24 35 -13 25 -24 50 -24 55 0 6
11 -10 24 -35 13 -25 24 -49 24 -55z m651 91 c0 -2 -8 -10 -17 -17 -16 -13
-17 -12 -4 4 13 16 21 21 21 13z m778 -49 c12 -11 22 -25 22 -30 0 -6 -10 -1
-23 11 -28 27 -47 29 -24 4 10 -10 14 -22 10 -25 -3 -4 -2 -7 4 -7 5 0 10 -6
10 -12 1 -7 11 -38 22 -68 12 -30 20 -63 17 -72 -2 -10 0 -18 6 -18 6 0 7 -7
4 -16 -3 -8 -2 -12 4 -9 5 3 14 -14 20 -37 19 -71 20 -76 35 -88 11 -9 12 -7
8 9 -3 12 -1 27 4 34 16 20 44 135 41 165 -4 37 14 44 26 9 7 -18 6 -41 -1
-70 -10 -37 -10 -40 3 -23 8 11 14 25 14 32 0 6 10 19 23 27 l22 16 -22 -6
c-19 -4 -23 -1 -23 16 0 12 -12 33 -26 48 l-25 25 -25 -23 -24 -22 0 44 c0 31
8 56 25 82 14 20 29 37 33 37 28 -1 97 -23 108 -35 13 -12 10 -14 -23 -10
l-38 4 30 -14 c18 -8 34 -25 41 -46 16 -45 18 -77 3 -62 -12 12 -52 5 -44 -8
3 -4 13 -5 21 -2 13 5 15 0 11 -27 -3 -17 -13 -40 -22 -50 -9 -10 -18 -26 -19
-35 -1 -9 -8 -20 -15 -24 -7 -4 -11 -12 -10 -17 4 -16 -37 -94 -45 -86 -4 4
-6 3 -5 -3 2 -5 -7 -30 -20 -53 -22 -43 -22 -46 -7 -104 17 -66 15 -78 -14
-78 -10 0 -25 -9 -33 -20 -14 -20 -15 -20 -36 15 -11 20 -24 62 -28 93 -4 34
-13 62 -24 72 -9 8 -47 89 -84 180 -37 91 -73 168 -79 172 -7 5 0 29 24 73
l34 66 46 -7 c25 -3 55 -16 68 -27z m1348 8 c16 -14 24 -25 18 -25 -6 0 -21
11 -34 25 -30 32 -21 32 16 0z m739 -6 c28 -7 42 -16 39 -23 -3 -7 11 -25 31
-40 l35 -27 0 -163 c0 -136 3 -165 15 -170 8 -3 15 -9 15 -14 0 -9 -57 -72
-65 -72 -2 0 -20 14 -40 31 l-36 32 -29 -21 c-29 -22 -56 -27 -121 -24 -57 3
-121 70 -140 147 -7 29 -7 29 -8 4 -1 -30 51 -137 76 -156 9 -7 14 -15 12 -18
-3 -2 -22 9 -42 26 -38 31 -94 131 -77 137 14 5 13 23 -1 20 -6 -2 -13 2 -16
8 -3 10 31 28 50 25 4 -1 7 11 7 27 0 46 20 101 41 116 12 8 18 19 14 26 -12
19 -64 -65 -57 -92 3 -12 -58 -4 -62 9 -3 8 1 10 11 6 12 -5 15 -2 11 8 -3 8
-8 25 -12 39 -7 25 -7 25 10 5 11 -13 18 -16 21 -8 11 31 76 103 110 123 43
26 107 48 141 49 13 1 43 -4 67 -10z m487 -10 c20 -5 40 -15 44 -21 5 -8 2 -9
-9 -5 -13 5 -17 0 -17 -21 0 -15 4 -22 8 -16 5 7 17 2 36 -17 l30 -28 -27 -12
c-15 -7 -27 -16 -27 -21 0 -12 -28 -10 -58 6 -15 8 -36 16 -47 18 -11 1 -26 9
-33 16 -17 15 -54 16 -70 0 -13 -13 -16 -59 -6 -95 9 -34 26 -16 20 20 -5 27
-5 29 4 10 12 -29 19 -29 62 0 33 23 39 23 77 -1 3 -1 -4 -8 -14 -16 -14 -10
-15 -15 -5 -21 8 -5 11 -4 7 2 -10 16 18 23 54 13 17 -5 35 -8 39 -5 3 2 18
-9 32 -24 71 -75 28 -188 -96 -251 -28 -14 -113 -19 -167 -9 -23 5 -95 52
-110 73 -4 4 -9 4 -13 -2 -3 -5 12 -21 34 -34 28 -16 37 -27 31 -37 -7 -10
-18 -5 -51 25 -33 30 -43 35 -51 23 -7 -12 -9 -11 -9 2 0 9 -7 19 -15 23 -8 3
-15 10 -15 16 0 6 7 6 20 -2 17 -11 22 -10 36 10 30 43 78 81 89 72 16 -13 97
2 103 19 3 9 0 11 -8 6 -23 -14 -74 -14 -101 1 -65 33 -62 120 6 189 49 50 49
58 0 21 -59 -45 -82 -131 -50 -186 31 -54 7 -70 -26 -17 -16 25 -19 45 -16 89
4 71 39 127 103 164 75 44 109 48 206 23z m-2843 -20 c23 -12 41 -27 41 -32 0
-6 -5 -5 -12 1 -7 5 -24 13 -38 17 l-25 7 22 -19 c13 -11 20 -22 17 -26 -3 -3
0 -8 7 -13 8 -5 10 -3 4 6 -5 8 -3 11 6 8 8 -3 13 -12 13 -21 -1 -9 3 -15 9
-14 18 4 35 -74 24 -110 -12 -37 2 -35 -179 -33 l-118 1 0 -30 c0 -19 8 -35
21 -45 12 -8 18 -19 15 -25 -5 -7 -1 -8 10 -4 11 4 15 3 10 -5 -3 -6 -1 -14 5
-18 8 -5 9 -3 4 6 -6 9 -1 10 16 5 l24 -6 -25 20 c-29 24 -17 27 20 6 16 -9
56 -15 110 -15 70 -1 82 -3 66 -13 -10 -7 -26 -19 -35 -27 -9 -8 -11 -11 -4
-6 25 16 22 1 -5 -41 l-27 -41 -75 2 c-82 3 -129 23 -177 74 -18 19 -15 12 9
-23 25 -37 46 -54 79 -67 26 -10 36 -17 24 -17 -35 -1 -127 61 -160 107 -28
41 -30 50 -30 130 0 75 4 95 28 144 30 62 93 123 142 138 48 15 139 5 184 -21z
m911 3 c25 -12 54 -35 64 -50 l19 -27 -24 21 c-30 26 -69 47 -76 41 -2 -3 5
-11 17 -17 16 -9 19 -14 10 -25 -9 -11 -6 -14 17 -17 20 -2 29 -9 31 -25 2
-13 8 -23 13 -23 11 0 6 -97 -5 -108 -4 -3 -70 -5 -146 -3 l-140 3 0 -30 c0
-22 9 -36 35 -56 20 -15 33 -31 30 -37 -3 -5 1 -6 9 -3 9 3 16 1 16 -6 0 -6 5
-8 12 -4 7 5 2 15 -18 31 -34 27 -26 30 19 6 22 -11 54 -16 99 -15 65 1 95 -9
62 -22 -8 -3 -12 -10 -9 -16 9 -15 -23 -63 -49 -76 -35 -16 -132 -8 -181 15
-26 12 -59 40 -79 67 -20 26 -36 41 -36 34 0 -7 11 -28 26 -47 14 -18 22 -33
19 -33 -3 0 6 -11 21 -25 15 -14 22 -25 15 -25 -18 0 -85 72 -104 112 -11 23
-17 61 -17 105 -1 66 -1 67 -16 41 -8 -16 -17 -28 -19 -28 -8 0 19 55 38 76
10 12 19 29 21 37 4 29 89 119 130 139 53 24 135 20 196 -10z m236 12 c-3 -9
6 -32 21 -55 32 -44 47 -51 33 -13 -13 33 -13 34 5 28 8 -4 15 -2 15 4 0 6 19
19 43 31 32 15 50 18 77 12 45 -10 93 -35 111 -58 13 -17 13 -17 -13 0 -45 28
-52 19 -17 -20 27 -31 30 -39 16 -41 -20 -4 -23 -22 -4 -22 9 0 13 -34 15
-137 1 -96 5 -139 14 -144 9 -6 5 -16 -17 -39 -35 -36 -45 -37 -74 -6 -18 19
-21 31 -16 54 3 18 2 33 -4 37 -15 9 -14 -78 1 -93 9 -9 9 -15 1 -23 -7 -7
-16 -3 -30 15 -17 21 -20 43 -23 148 -1 68 -3 137 -4 153 -1 21 4 30 14 30 12
0 16 -17 18 -77 2 -43 6 -78 11 -78 4 0 6 19 5 43 -2 23 -3 57 -3 75 -1 45
-31 72 -80 72 -23 0 -46 -7 -55 -16 -18 -17 -21 -28 -6 -19 6 3 10 1 10 -4 0
-6 -3 -11 -7 -11 -5 0 -8 -48 -9 -108 -1 -59 -2 -133 -2 -166 l-2 -59 -49 7
c-40 5 -51 3 -59 -10 -17 -31 -21 2 -22 187 -1 161 1 184 14 183 9 -1 16 3 16
8 0 6 -13 7 -31 3 l-30 -7 22 44 c37 74 50 88 76 88 19 0 24 -4 19 -16z m34
-15 c0 -6 -4 -7 -10 -4 -5 3 -10 11 -10 16 0 6 5 7 10 4 6 -3 10 -11 10 -16z
m-1893 -11 c-3 -8 -6 -5 -6 6 -1 11 2 17 5 13 3 -3 4 -12 1 -19z m-30 -30 c-3
-8 -6 -5 -6 6 -1 11 2 17 5 13 3 -3 4 -12 1 -19z m1048 12 c3 -5 1 -10 -4 -10
-6 0 -11 5 -11 10 0 6 2 10 4 10 3 0 8 -4 11 -10z m2645 -33 c0 -4 -11 0 -25
10 -13 10 -25 22 -25 26 0 4 11 0 25 -10 13 -10 25 -22 25 -26z m-3693 -29
c-3 -7 -5 -2 -5 12 0 14 2 19 5 13 2 -7 2 -19 0 -25z m30 -20 c-2 -13 -4 -5
-4 17 -1 22 1 32 4 23 2 -10 2 -28 0 -40z m798 22 c8 -16 14 -51 14 -77 l-2
-48 -6 55 c-4 30 -12 65 -19 78 -7 12 -10 22 -8 22 3 0 12 -13 21 -30z m1392
-12 c-3 -8 -6 -5 -6 6 -1 11 2 17 5 13 3 -3 4 -12 1 -19z m1240 -4 c-3 -3 -12
-4 -19 -1 -8 3 -5 6 6 6 11 1 17 -2 13 -5z m-3460 -26 c-3 -8 -6 -5 -6 6 -1
11 2 17 5 13 3 -3 4 -12 1 -19z m3633 -18 c0 -5 -2 -10 -4 -10 -3 0 -8 5 -11
10 -3 6 -1 10 4 10 6 0 11 -4 11 -10z m68 -19 c17 -17 32 -33 32 -37 0 -4 -15
5 -32 22 -18 16 -37 32 -42 36 -6 5 -6 8 0 8 5 0 24 -13 42 -29z m-1481 -23
c-3 -7 -5 -2 -5 12 0 14 2 19 5 13 2 -7 2 -19 0 -25z m-250 -55 c-3 -10 -5 -4
-5 12 0 17 2 24 5 18 2 -7 2 -21 0 -30z m-2400 -4 c-3 -11 0 -22 5 -26 6 -3 8
-1 5 4 -4 6 0 13 8 16 9 4 12 1 9 -7 -3 -8 -1 -17 5 -21 26 -15 8 -24 -20 -10
-19 10 -29 22 -25 30 3 8 1 17 -4 20 -16 10 -11 25 6 18 9 -3 14 -13 11 -24z
m1260 -1 c-3 -8 -6 -5 -6 6 -1 11 2 17 5 13 3 -3 4 -12 1 -19z m53 -4 c0 -3
-10 -28 -21 -55 -21 -48 -22 -49 -33 -27 -9 17 -23 25 -56 29 l-45 6 40 2 c59
2 84 11 90 32 6 17 25 27 25 13z m371 -17 c-10 -9 -11 -8 -5 6 3 10 9 15 12
12 3 -3 0 -11 -7 -18z m236 17 c-3 -3 -12 -4 -19 -1 -8 3 -5 6 6 6 11 1 17 -2
13 -5z m-922 -42 c-3 -3 -11 0 -18 7 -9 10 -8 11 6 5 10 -3 15 -9 12 -12z
m1652 -34 c-2 -13 -4 -5 -4 17 -1 22 1 32 4 23 2 -10 2 -28 0 -40z m-984 22
c-5 -19 -23 -39 -23 -25 0 9 20 45 24 45 2 0 2 -9 -1 -20z m422 10 c3 -5 1
-10 -4 -10 -6 0 -11 5 -11 10 0 6 2 10 4 10 3 0 8 -4 11 -10z m113 -19 c2 -13
-1 -28 -7 -34 -8 -8 -11 -6 -11 6 0 19 -29 37 -62 38 -36 1 4 14 44 14 27 0
34 -4 36 -24z m-145 12 c-7 -2 -19 -2 -25 0 -7 3 -2 5 12 5 14 0 19 -2 13 -5z
m1604 -35 c-3 -8 -6 -5 -6 6 -1 11 2 17 5 13 3 -3 4 -12 1 -19z m-3617 -25 c0
-3 -7 -2 -16 1 -12 4 -15 2 -11 -9 9 -23 -8 -26 -26 -4 -14 16 -15 22 -5 33
11 11 17 11 35 -1 13 -9 23 -18 23 -20z m1575 -43 c-14 -27 -28 -50 -30 -50
-7 0 23 70 36 87 21 25 19 13 -6 -37z m-1543 -3 c8 -15 6 -18 -9 -15 -14 2
-17 -3 -15 -25 3 -27 3 -28 -16 -11 -18 15 -18 19 -6 31 8 8 14 22 14 32 0 23
13 36 19 19 2 -7 8 -21 13 -31z m4069 15 c-5 -10 -18 -25 -28 -33 -12 -10 -11
-5 6 19 24 35 38 43 22 14z m-4173 -17 c-3 -3 -9 2 -12 12 -6 14 -5 15 5 6 7
-7 10 -15 7 -18z m2419 -22 c-3 -10 -5 -2 -5 17 0 19 2 27 5 18 2 -10 2 -26 0
-35z m-247 12 c0 -18 -59 -79 -68 -71 -3 3 7 15 21 26 14 11 29 29 32 40 8 24
15 26 15 5z m970 -10 c-7 -9 -15 -13 -19 -10 -3 3 1 10 9 15 21 14 24 12 10
-5z m559 -19 c-13 -28 -69 -61 -90 -54 -8 3 1 8 19 12 19 5 42 20 54 37 26 35
31 37 17 5z m-113 -25 c-5 -8 -15 -5 -31 6 -20 16 -21 19 -7 24 20 8 47 -14
38 -30z m-2371 4 c-39 -32 -54 -32 -18 0 15 13 33 24 38 25 6 0 -3 -11 -20
-25z m-620 5 c3 -6 -1 -7 -9 -4 -18 7 -21 14 -7 14 6 0 13 -4 16 -10z m1817
-22 c-8 -8 -9 -4 -5 13 4 13 8 18 11 10 2 -7 -1 -18 -6 -23z m644 7 c-11 -8
-27 -15 -35 -14 -9 0 -2 7 14 14 39 18 45 18 21 0z m832 -10 c-6 -6 -58 8 -58
16 0 4 14 3 31 -3 16 -6 29 -12 27 -13z m-2255 -25 c3 -11 1 -20 -4 -20 -5 0
-9 9 -9 20 0 11 2 20 4 20 2 0 6 -9 9 -20z m2364 14 c-3 -3 -12 -4 -19 -1 -8
3 -5 6 6 6 11 1 17 -2 13 -5z m-2360 -76 c-3 -7 -5 -2 -5 12 0 14 2 19 5 13 2
-7 2 -19 0 -25z m-960 -214 c224 -213 449 -385 673 -514 41 -24 101 -60 133
-82 32 -21 63 -38 69 -38 14 0 48 -30 48 -42 0 -14 -30 -9 -36 7 -4 8 -10 12
-15 9 -5 -3 -24 7 -43 21 -23 18 -42 24 -60 21 -16 -3 -26 0 -26 8 0 6 -13 20
-30 29 -18 11 -30 14 -30 7 0 -10 -64 23 -100 52 -9 7 -23 14 -31 16 -8 2 -27
12 -44 23 -38 24 -95 74 -75 64 8 -3 2 5 -15 19 -16 14 -33 26 -37 26 -4 0
-20 12 -35 26 -15 15 -62 52 -103 82 -41 31 -80 61 -86 67 -6 6 -47 41 -90 77
-43 37 -85 77 -92 88 -7 11 -18 18 -24 14 -7 -4 -8 -3 -4 4 4 7 2 12 -3 12 -6
0 -11 7 -11 16 0 10 -6 14 -14 11 -8 -3 -20 2 -28 11 -12 15 -11 16 5 3 37
-29 14 3 -39 55 -30 30 -52 59 -49 64 10 16 22 6 192 -156z m538 79 c33 -9 78
-25 100 -36 l40 -18 -45 6 c-47 6 -206 57 -252 81 -52 27 -28 33 34 8 34 -13
89 -32 123 -41z m-852 -17 c15 -9 31 -14 36 -11 5 2 16 -13 25 -35 9 -22 20
-40 26 -40 5 0 10 -11 10 -24 0 -32 17 -76 29 -76 6 0 8 7 4 16 -5 15 -3 15
20 -1 15 -9 27 -24 27 -32 0 -9 6 -13 15 -9 9 3 25 -4 36 -15 14 -14 24 -18
28 -11 4 7 12 3 20 -10 12 -19 11 -20 -6 -14 -12 4 -10 0 7 -13 13 -11 28 -17
32 -15 4 3 8 0 8 -7 0 -7 8 -21 17 -32 10 -10 18 -26 18 -35 0 -13 9 -17 37
-17 20 0 34 -3 31 -8 -2 -4 3 -10 11 -13 9 -3 13 -10 10 -15 -3 -5 -1 -9 4 -9
5 0 12 -9 15 -20 3 -12 14 -20 27 -20 26 0 49 -26 50 -54 0 -13 5 -16 16 -12
27 10 113 -59 114 -91 0 -7 7 -13 16 -13 10 0 14 6 10 15 -13 34 14 12 34 -27
11 -24 26 -50 32 -59 19 -28 -11 -49 -53 -39 -19 4 -28 8 -21 9 22 2 13 18
-18 31 -17 7 -36 21 -43 31 -8 11 -23 17 -40 15 -27 -3 -82 35 -70 48 4 3 0 6
-7 6 -11 0 -11 3 -2 12 17 17 15 31 -2 25 -10 -4 -13 -1 -10 7 5 12 -25 20
-103 28 -12 1 -17 12 -14 31 0 4 -6 7 -15 7 -21 0 -85 39 -102 62 -7 10 -20
18 -28 18 -8 0 -14 5 -14 10 0 6 -9 19 -21 31 -17 17 -23 18 -36 7 -14 -11
-15 -10 -9 9 9 27 -68 135 -90 126 -8 -3 -15 0 -15 6 -2 15 -4 23 -13 50 -6
16 -4 26 5 32 11 7 10 9 -3 9 -9 0 -18 -10 -21 -22 -3 -22 -4 -22 -12 -3 -4
11 -15 28 -23 38 -13 15 -13 17 -1 17 8 0 20 -5 27 -12 9 -9 12 -9 12 0 0 6
-12 15 -26 18 -15 4 -36 16 -47 27 -17 17 -18 23 -8 40 10 15 10 21 1 27 -7 4
-9 13 -5 20 5 8 4 11 -2 7 -6 -4 -17 1 -24 10 -12 15 -12 16 5 10 14 -6 17 -4
11 10 -4 13 2 11 22 -8 15 -14 41 -33 56 -43z m471 -42 c9 -3 16 -12 16 -20 0
-8 9 -14 20 -14 11 0 20 -4 20 -10 0 -17 -29 -11 -60 12 -41 30 -39 48 4 32z
m98 -25 c16 -9 23 -8 29 2 6 10 9 11 9 2 0 -7 7 -13 15 -13 8 0 15 -4 15 -10
0 -5 -5 -10 -11 -10 -5 0 -7 -5 -4 -10 4 -6 13 -7 22 -2 18 11 84 -10 124 -39
15 -10 32 -19 38 -19 6 0 11 -9 11 -19 0 -18 2 -19 27 -6 26 14 28 13 36 -8 5
-14 4 -23 -4 -26 -7 -2 7 -12 32 -22 24 -10 37 -18 29 -19 -11 -1 -9 -4 4 -9
24 -9 29 -51 7 -51 -22 0 -63 29 -56 40 3 4 -3 6 -13 3 -11 -2 -26 3 -35 11
-19 19 -38 20 -57 4 -12 -11 -12 -10 -2 3 16 21 7 44 -17 46 -10 1 -35 8 -55
17 -29 12 -36 20 -36 42 0 20 -3 25 -11 17 -12 -12 1 -45 28 -71 7 -8 11 -18
8 -23 -10 -15 -23 -10 -30 12 -5 14 -12 18 -23 13 -37 -15 -57 -10 -57 16 0
14 5 29 10 33 6 5 3 7 -7 3 -10 -3 -20 -1 -24 5 -4 6 -11 6 -20 -2 -12 -10
-13 -9 -9 4 4 8 2 18 -4 22 -6 3 -11 11 -11 17 0 7 6 6 15 -2 9 -8 15 -9 15
-2 0 6 -4 14 -10 17 -10 6 -14 45 -4 45 3 0 15 -5 26 -11z m-432 -70 c0 -14
-17 -10 -23 5 -4 10 -1 13 9 9 7 -3 14 -9 14 -14z m120 -73 c0 -2 -7 -6 -15
-10 -8 -3 -15 -1 -15 4 0 6 7 10 15 10 8 0 15 -2 15 -4z m414 -52 c5 -14 4
-15 -9 -4 -17 14 -19 20 -6 20 5 0 12 -7 15 -16z m290 -91 c6 -15 4 -15 -18
-7 -20 8 -21 21 -1 21 8 0 16 -6 19 -14z m-639 -231 c-6 -7 -35 18 -35 31 0 5
9 2 20 -8 11 -10 18 -20 15 -23z m60 -42 c12 -19 -12 -10 -31 11 -19 22 -19
22 3 10 12 -6 25 -16 28 -21z m81 -77 c-6 -7 -54 29 -60 45 -3 7 10 1 29 -14
20 -15 33 -29 31 -31z m319 17 c3 -6 -1 -7 -9 -4 -18 7 -21 14 -7 14 6 0 13
-4 16 -10z m35 -57 c0 -10 6 -14 19 -10 14 3 18 1 14 -9 -4 -10 -16 -12 -43
-8 -23 4 -40 2 -44 -5 -4 -6 -12 -11 -17 -11 -6 0 -3 7 5 16 9 8 16 20 16 25
0 6 5 7 11 3 8 -4 9 1 4 16 -6 20 -5 21 14 11 12 -7 21 -19 21 -28z m450 -9
c0 -8 -4 -12 -10 -9 -5 3 -10 10 -10 16 0 5 5 9 10 9 6 0 10 -7 10 -16z m-345
-34 c-3 -5 1 -10 9 -10 9 0 16 -6 16 -14 0 -10 -9 -14 -25 -12 -26 3 -48 16
-27 16 7 0 12 7 12 15 0 8 5 15 11 15 5 0 7 -4 4 -10z m-70 -20 c-3 -5 -12
-10 -18 -10 -7 0 -6 4 3 10 19 12 23 12 15 0z m155 -53 c0 -6 -9 -1 -20 11
-11 12 -20 24 -20 28 0 4 9 -1 20 -11 11 -10 20 -23 20 -28z m-63 -33 c-8 -8
-37 21 -37 38 0 7 9 4 22 -9 12 -13 19 -25 15 -29z m148 -4 c3 -5 1 -10 -4
-10 -6 0 -11 5 -11 10 0 6 2 10 4 10 3 0 8 -4 11 -10z m-80 -20 c3 -6 -1 -7
-9 -4 -18 7 -21 14 -7 14 6 0 13 -4 16 -10z m273 -279 c5 -16 -24 -13 -38 3
-6 8 -18 12 -25 9 -13 -4 -45 17 -45 31 0 9 104 -32 108 -43z m42 -5 c0 -3 -4
-8 -10 -11 -5 -3 -10 -1 -10 4 0 6 5 11 10 11 6 0 10 -2 10 -4z m38 -14 c2 -7
-3 -12 -12 -12 -9 0 -16 7 -16 16 0 17 22 14 28 -4z"/>
<path d="M2946 3635 c-9 -26 -7 -32 5 -12 6 10 9 21 6 23 -2 3 -7 -2 -11 -11z"/>
<path d="M2815 3400 c-4 -6 6 -10 24 -10 16 0 33 5 36 10 4 6 -6 10 -24 10
-16 0 -33 -4 -36 -10z"/>
<path d="M2935 3190 c-3 -6 1 -7 9 -4 18 7 21 14 7 14 -6 0 -13 -4 -16 -10z"/>
<path d="M375 3401 c-3 -5 -1 -12 5 -16 5 -3 10 1 10 9 0 18 -6 21 -15 7z"/>
<path d="M3709 3443 c-23 -28 -36 -51 -16 -28 10 11 26 26 35 33 9 6 11 12 5
12 -5 0 -16 -8 -24 -17z"/>
<path d="M3916 3414 c-9 -24 -7 -27 9 -10 17 17 19 26 6 26 -5 0 -12 -7 -15
-16z"/>
<path d="M3653 3355 c-3 -9 -3 -18 -1 -21 3 -3 8 4 11 16 6 23 -1 27 -10 5z"/>
<path d="M3869 3323 c-13 -16 -12 -17 4 -4 16 13 21 21 13 21 -2 0 -10 -8 -17
-17z"/>
<path d="M3698 3313 c6 -2 18 -2 25 0 6 3 1 5 -13 5 -14 0 -19 -2 -12 -5z"/>
<path d="M3956 3293 c-6 -14 -5 -15 5 -6 7 7 10 15 7 18 -3 3 -9 -2 -12 -12z"/>
<path d="M3725 3250 c3 -5 8 -10 11 -10 2 0 4 5 4 10 0 6 -5 10 -11 10 -5 0
-7 -4 -4 -10z"/>
<path d="M3700 3160 c-9 -6 -10 -10 -3 -10 6 0 15 5 18 10 8 12 4 12 -15 0z"/>
<path d="M3659 3133 c-13 -16 -12 -17 4 -4 9 7 17 15 17 17 0 8 -8 3 -21 -13z"/>
<path d="M3778 3110 c25 -24 32 -25 32 -6 0 8 -7 17 -16 20 -31 12 -38 6 -16
-14z"/>
<path d="M3338 3483 c7 -3 16 -2 19 1 4 3 -2 6 -13 5 -11 0 -14 -3 -6 -6z"/>
<path d="M3288 3473 c7 -3 16 -2 19 1 4 3 -2 6 -13 5 -11 0 -14 -3 -6 -6z"/>
<path d="M3185 3400 c-16 -16 -26 -32 -24 -34 3 -3 17 10 32 29 34 43 30 45
-8 5z"/>
<path d="M3225 3406 c-25 -25 -30 -51 -25 -136 2 -34 19 -79 20 -52 0 16 20
16 20 -1 0 -8 14 -33 30 -55 17 -23 30 -44 30 -47 0 -8 -37 32 -56 60 -9 14
-19 23 -22 21 -7 -8 23 -50 60 -85 33 -31 60 -43 39 -17 -9 11 -1 11 44 -2 43
-12 60 -13 80 -4 67 31 58 184 -16 262 -13 13 -23 28 -22 31 3 10 -64 35 -114
44 -37 6 -45 3 -68 -19z m14 -31 c-24 -40 -34 -45 -23 -13 5 18 30 46 41 48 1
0 -7 -16 -18 -35z m134 -51 c18 -15 31 -31 30 -35 -2 -5 5 -5 15 -2 9 3 14 3
10 -1 -3 -4 0 -19 7 -33 9 -17 11 -32 5 -43 -5 -10 -6 -20 -3 -24 3 -3 1 -6
-6 -6 -7 0 -9 -4 -6 -10 3 -5 -3 -10 -14 -10 -11 0 -23 -5 -26 -10 -4 -7 3 -8
22 -4 22 5 26 4 16 -6 -34 -36 -133 48 -153 130 -6 27 -9 59 -5 71 6 18 12 20
41 16 19 -3 49 -18 67 -33z m-156 -46 c-2 -13 -4 -5 -4 17 -1 22 1 32 4 23 2
-10 2 -28 0 -40z"/>
<path d="M3136 3305 c-3 -9 -6 -26 -5 -38 1 -14 4 -9 9 13 9 37 7 52 -4 25z"/>
<path d="M3132 3220 c0 -14 2 -19 5 -12 2 6 2 18 0 25 -3 6 -5 1 -5 -13z"/>
<path d="M3525 3210 c-3 -5 -1 -10 4 -10 6 0 11 5 11 10 0 6 -2 10 -4 10 -3 0
-8 -4 -11 -10z"/>
<path d="M1764 3435 c-8 -20 2 -85 16 -99 7 -7 10 7 10 46 0 56 -14 85 -26 53z"/>
<path d="M2176 3339 c-3 -34 -6 -85 -6 -113 1 -48 1 -50 14 -26 24 44 36 124
25 164 -5 20 -14 36 -18 36 -5 0 -11 -28 -15 -61z"/>
<path d="M1277 2753 c-10 -10 -8 -45 2 -39 11 7 21 46 12 46 -4 0 -11 -3 -14
-7z"/>
<path d="M1410 2707 c0 -8 -18 -28 -40 -46 -44 -35 -49 -51 -23 -72 11 -9 14
-10 10 -2 -11 17 18 69 48 89 25 16 34 44 15 44 -5 0 -10 -6 -10 -13z"/>
<path d="M1256 2684 c-10 -25 1 -29 14 -5 6 12 7 21 1 21 -5 0 -12 -7 -15 -16z"/>
<path d="M1986 2841 c-4 -6 -1 -11 6 -12 47 -2 171 -10 176 -10 17 -3 32 2 32
9 0 4 -26 8 -57 9 -32 1 -79 5 -104 8 -30 4 -49 3 -53 -4z"/>
<path d="M2218 2843 c6 -2 18 -2 25 0 6 3 1 5 -13 5 -14 0 -19 -2 -12 -5z"/>
<path d="M1016 2361 c-4 -5 3 -7 14 -4 23 6 26 13 6 13 -8 0 -17 -4 -20 -9z"/>
<path d="M945 2312 c-17 -15 -37 -36 -44 -47 -8 -11 -3 -8 12 7 14 14 36 33
49 42 12 9 20 17 17 20 -2 2 -18 -8 -34 -22z"/>
<path d="M910 2229 c0 -5 5 -7 10 -4 6 3 10 8 10 11 0 2 -4 4 -10 4 -5 0 -10
-5 -10 -11z"/>
<path d="M860 2127 c0 -50 2 -55 23 -55 12 0 36 -3 52 -7 21 -5 26 -4 16 3
-10 7 -12 15 -5 24 5 8 1 5 -8 -5 -15 -16 -19 -17 -24 -4 -3 9 -14 13 -27 10
-22 -4 -22 -4 -3 11 19 15 19 16 2 16 -14 0 -17 6 -14 25 3 14 1 28 -3 31 -5
3 -9 -19 -9 -49z"/>
<path d="M918 2123 c7 -3 16 -2 19 1 4 3 -2 6 -13 5 -11 0 -14 -3 -6 -6z"/>
<path d="M971 1944 c0 -11 3 -14 6 -6 3 7 2 16 -1 19 -3 4 -6 -2 -5 -13z"/>
<path d="M876 1847 c3 -10 9 -15 12 -12 3 3 0 11 -7 18 -10 9 -11 8 -5 -6z"/>
<path d="M957 1844 c3 -8 0 -21 -7 -29 -20 -24 -5 -28 29 -10 30 15 31 17 15
33 -21 21 -44 25 -37 6z"/>
<path d="M1093 1843 c9 -2 23 -2 30 0 6 3 -1 5 -18 5 -16 0 -22 -2 -12 -5z"/>
<path d="M1218 1843 c7 -3 16 -2 19 1 4 3 -2 6 -13 5 -11 0 -14 -3 -6 -6z"/>
<path d="M1025 1823 c-3 -10 -1 -19 4 -21 6 -2 9 -8 6 -13 -4 -5 1 -6 9 -3 18
7 21 24 5 24 -6 0 -9 7 -5 15 3 8 1 15 -3 15 -5 0 -12 -8 -16 -17z"/>
<path d="M3426 2287 c3 -10 9 -15 12 -12 3 3 0 11 -7 18 -10 9 -11 8 -5 -6z"/>
<path d="M3468 2195 c-4 -4 -4 -13 -2 -20 3 -8 -6 -21 -21 -31 -44 -29 -70
-97 -71 -192 l-1 -84 40 -39 c23 -21 46 -39 52 -39 5 0 -1 9 -15 20 -32 25
-23 25 31 0 52 -23 81 -25 118 -6 35 19 51 55 51 117 0 88 -81 212 -145 222
l-30 4 33 2 c40 1 43 21 3 21 -19 0 -31 6 -33 16 -2 9 -6 13 -10 9z m-37 -111
c-11 -15 -21 -34 -22 -43 0 -10 -2 -11 -6 -4 -5 14 36 87 44 79 3 -3 -4 -17
-16 -32z m119 -32 c23 -20 24 -24 11 -45 -13 -20 -13 -21 3 -8 9 8 20 10 24 6
4 -4 1 -10 -5 -12 -20 -7 -15 -22 5 -16 15 3 17 -3 17 -44 -1 -54 -10 -79 -28
-80 -7 0 -19 -4 -28 -7 -28 -12 -67 45 -65 94 1 24 -3 45 -11 52 -17 14 -17
28 1 28 8 0 18 5 22 11 4 8 -1 9 -17 4 l-24 -7 25 25 c30 29 36 29 70 -1z
m-131 -190 c6 -12 8 -22 3 -22 -12 0 -32 47 -31 73 1 20 1 20 8 -4 5 -14 14
-35 20 -47z"/>
<path d="M3596 2177 c3 -10 9 -15 12 -12 3 3 0 11 -7 18 -10 9 -11 8 -5 -6z"/>
<path d="M3348 2093 c-45 -50 -83 -182 -58 -198 6 -4 10 -3 9 2 -6 38 3 82 19
86 16 4 16 5 -1 6 -16 1 -17 3 -1 32 9 18 27 43 40 56 13 13 24 26 24 28 0 11
-18 4 -32 -12z"/>
<path d="M3630 2090 c-27 -9 -26 -10 8 -14 13 -2 22 3 22 11 0 7 -1 13 -2 12
-2 -1 -14 -5 -28 -9z"/>
<path d="M3684 2079 c-7 -12 17 -32 26 -22 3 3 -1 8 -8 10 -6 3 -10 9 -6 14 3
5 3 9 0 9 -3 0 -8 -5 -12 -11z"/>
<path d="M3345 1939 c-4 -6 -5 -12 -2 -15 2 -3 7 2 10 11 7 17 1 20 -8 4z"/>
<path d="M3310 1910 c0 -5 5 -10 11 -10 5 0 7 5 4 10 -3 6 -8 10 -11 10 -2 0
-4 -4 -4 -10z"/>
<path d="M2165 2200 c-3 -6 1 -7 9 -4 18 7 21 14 7 14 -6 0 -13 -4 -16 -10z"/>
<path d="M2216 2175 c4 -8 11 -15 16 -15 6 0 5 6 -2 15 -7 8 -14 15 -16 15 -2
0 -1 -7 2 -15z"/>
<path d="M2140 2165 c0 -8 2 -15 4 -15 2 0 6 7 10 15 3 8 1 15 -4 15 -6 0 -10
-7 -10 -15z"/>
<path d="M1970 2129 c0 -5 5 -7 10 -4 6 3 10 8 10 11 0 2 -4 4 -10 4 -5 0 -10
-5 -10 -11z"/>
<path d="M1860 2123 c0 -3 6 -14 14 -22 13 -15 35 -66 88 -198 11 -29 24 -50
29 -47 5 3 1 16 -7 30 -9 13 -14 27 -11 31 4 3 -3 19 -14 34 -11 16 -17 29
-13 29 4 0 0 8 -9 18 -9 10 -20 33 -23 50 -4 18 -11 35 -15 38 -5 3 -9 14 -9
25 0 10 -7 19 -15 19 -8 0 -15 -3 -15 -7z"/>
<path d="M2248 2113 c6 -2 18 -2 25 0 6 3 1 5 -13 5 -14 0 -19 -2 -12 -5z"/>
<path d="M1941 2090 c-9 -5 -4 -7 13 -7 29 0 32 2 13 10 -8 3 -20 2 -26 -3z"/>
<path d="M2000 2030 c0 -5 5 -10 11 -10 5 0 7 5 4 10 -3 6 -8 10 -11 10 -2 0
-4 -4 -4 -10z"/>
<path d="M2005 1797 c7 -23 18 -42 26 -42 8 0 17 -4 21 -10 5 -6 8 -5 8 4 0 7
-11 22 -25 33 -14 11 -25 26 -25 33 0 8 -4 16 -9 19 -5 3 -3 -13 4 -37z"/>
<path d="M2054 1681 c4 -24 11 -51 17 -60 8 -12 9 -8 3 14 -3 17 -8 41 -9 53
-2 13 -7 27 -11 30 -4 4 -4 -13 0 -37z"/>
<path d="M4048 2183 c7 -3 16 -2 19 1 4 3 -2 6 -13 5 -11 0 -14 -3 -6 -6z"/>
<path d="M3901 2150 c-13 -11 -18 -20 -12 -20 8 0 6 -11 -5 -32 -25 -48 -30
-153 -10 -208 9 -25 18 -49 19 -54 4 -16 38 -48 44 -42 4 3 -1 14 -9 23 -30
36 -29 47 1 16 26 -27 40 -33 75 -33 69 0 76 15 76 161 0 84 -4 129 -12 137
-9 9 -9 12 2 12 12 0 12 2 0 14 -17 17 -112 25 -150 13 l-25 -8 25 20 c14 11
21 21 15 20 -5 0 -21 -9 -34 -19z m107 -27 c-10 -2 -26 -2 -35 0 -10 3 -2 5
17 5 19 0 27 -2 18 -5z m-1 -71 c28 -18 46 -147 25 -178 -23 -35 -67 -18 -91
36 -20 44 -15 137 7 133 7 -2 12 2 12 7 0 12 30 13 47 2z m-114 -94 c2 -43 0
-75 -5 -72 -4 3 -8 42 -7 87 1 98 6 91 12 -15z"/>
<path d="M4130 2162 c0 -5 7 -15 15 -22 8 -7 15 -8 15 -2 0 5 -7 15 -15 22 -8
7 -15 8 -15 2z"/>
<path d="M4120 2130 c13 -23 20 -26 20 -6 0 8 -7 16 -15 20 -13 4 -14 2 -5
-14z"/>
<path d="M4100 2110 c0 -5 5 -10 11 -10 5 0 7 5 4 10 -3 6 -8 10 -11 10 -2 0
-4 -4 -4 -10z"/>
<path d="M4148 2019 c-10 -10 -15 -19 -10 -19 4 0 -2 -8 -13 -16 -20 -16 -20
-16 3 -9 17 5 22 2 22 -10 0 -14 4 -12 19 6 16 20 17 25 5 27 -10 2 -13 10 -9
23 8 23 5 23 -17 -2z"/>
<path d="M3820 1989 c0 -5 5 -7 10 -4 6 3 10 8 10 11 0 2 -4 4 -10 4 -5 0 -10
-5 -10 -11z"/>
<path d="M3810 1901 c0 -6 4 -13 10 -16 6 -3 7 1 4 9 -7 18 -14 21 -14 7z"/>
<path d="M4145 1750 c3 -5 8 -10 11 -10 2 0 4 5 4 10 0 6 -5 10 -11 10 -5 0
-7 -4 -4 -10z"/>
<path d="M4485 2190 c-23 -5 -16 -7 35 -12 36 -3 66 -4 68 -3 9 7 -78 20 -103
15z"/>
<path d="M4526 2142 c-3 -5 1 -9 9 -9 8 0 15 4 15 9 0 4 -4 8 -9 8 -6 0 -12
-4 -15 -8z"/>
<path d="M4616 2114 c-23 -23 -20 -30 4 -9 11 10 20 20 20 22 0 7 -9 2 -24
-13z"/>
<path d="M4510 1995 c0 -8 2 -15 4 -15 2 0 6 7 10 15 3 8 1 15 -4 15 -6 0 -10
-7 -10 -15z"/>
<path d="M4646 1995 c-9 -26 -7 -32 5 -12 6 10 9 21 6 23 -2 3 -7 -2 -11 -11z"/>
<path d="M4455 1991 l-30 -7 27 -5 c18 -4 29 -1 32 7 3 8 4 13 3 13 -1 -1 -15
-4 -32 -8z"/>
<path d="M4510 1937 c-38 -19 -80 -69 -74 -89 6 -22 -14 -24 -22 -3 -4 8 -13
15 -21 15 -11 0 -7 -7 10 -20 15 -12 32 -17 43 -13 12 4 15 3 10 -5 -4 -7 -1
-12 10 -12 12 0 14 4 7 13 -6 6 -13 19 -16 28 -5 15 -3 15 22 3 15 -8 41 -17
58 -20 27 -5 31 -3 37 21 4 16 2 33 -5 41 -8 10 -9 18 -2 25 7 7 17 2 32 -17
12 -16 21 -21 21 -12 0 42 -63 68 -110 45z"/>
<path d="M4680 1910 c0 -5 5 -10 10 -10 6 0 10 5 10 10 0 6 -4 10 -10 10 -5 0
-10 -4 -10 -10z"/>
<path d="M4345 1850 c-3 -5 -2 -10 4 -10 5 0 13 5 16 10 3 6 2 10 -4 10 -5 0
-13 -4 -16 -10z"/>
<path d="M4595 1811 c-3 -6 -21 -11 -40 -11 -19 0 -36 -3 -38 -7 -3 -5 9 -8
26 -8 35 1 76 20 65 30 -3 3 -9 2 -13 -4z"/>
<path d="M1505 2145 c-30 -27 -65 -73 -65 -88 0 -5 15 11 33 34 43 57 59 61
41 12 -16 -45 -18 -109 -4 -118 6 -3 10 -1 10 4 0 7 33 11 90 11 75 0 90 3 90
16 0 20 -18 54 -44 82 -20 22 -20 23 -1 17 20 -7 20 -6 1 9 -13 10 -39 16 -74
16 -47 0 -53 2 -42 15 20 24 -2 17 -35 -10z m95 -19 c0 -2 -13 -6 -30 -8 -16
-3 -30 -1 -30 4 0 4 14 8 30 8 17 0 30 -2 30 -4z m35 -59 c34 -25 1 -39 -67
-28 -3 1 -4 10 -1 21 6 23 40 27 68 7z"/>
<path d="M1720 2070 c0 -5 5 -10 11 -10 5 0 7 5 4 10 -3 6 -8 10 -11 10 -2 0
-4 -4 -4 -10z"/>
<path d="M1421 2009 c-6 -18 -10 -55 -9 -83 l1 -51 4 45 c2 25 6 52 10 60 7
18 13 60 8 60 -2 0 -8 -14 -14 -31z"/>
<path d="M1460 1899 c0 -5 5 -7 10 -4 6 3 10 8 10 11 0 2 -4 4 -10 4 -5 0 -10
-5 -10 -11z"/>
<path d="M1710 1809 c0 -5 5 -7 10 -4 6 3 10 8 10 11 0 2 -4 4 -10 4 -5 0 -10
-5 -10 -11z"/>
<path d="M2442 2157 c-25 -15 -74 -72 -87 -102 -12 -30 -15 -45 -19 -115 -3
-36 -2 -52 1 -35 2 16 10 33 16 37 9 6 9 8 0 8 -24 0 12 111 52 164 19 24 30
15 16 -13 -11 -19 -18 -99 -10 -104 2 -1 50 -1 107 1 116 4 122 10 77 76 -21
31 -22 36 -7 36 11 1 5 7 -16 18 -18 10 -29 22 -25 27 4 5 0 3 -9 -4 -19 -14
-82 -6 -72 10 7 12 4 11 -24 -4z m13 -17 c-3 -5 -11 -10 -16 -10 -6 0 -7 5 -4
10 3 6 11 10 16 10 6 0 7 -4 4 -10z m20 -20 c-3 -5 -11 -10 -16 -10 -6 0 -7 5
-4 10 3 6 11 10 16 10 6 0 7 -4 4 -10z m-31 -35 c-4 -8 -8 -15 -10 -15 -2 0
-4 7 -4 15 0 8 4 15 10 15 5 0 7 -7 4 -15z m117 -21 c23 -28 -13 -43 -68 -28
-24 7 -30 23 -13 40 14 14 66 6 81 -12z m-134 -51 c-3 -10 -5 -4 -5 12 0 17 2
24 5 18 2 -7 2 -21 0 -30z"/>
<path d="M2630 2095 c0 -3 6 -12 13 -19 10 -11 15 -10 25 1 7 7 8 13 3 13 -5
0 -16 3 -25 6 -9 3 -16 3 -16 -1z"/>
<path d="M2396 1821 c-4 -5 -2 -12 4 -16 5 -3 10 -3 10 2 0 4 5 1 10 -7 5 -8
10 -10 10 -4 0 17 -27 37 -34 25z"/>
<path d="M2608 1803 c7 -3 16 -2 19 1 4 3 -2 6 -13 5 -11 0 -14 -3 -6 -6z"/>
<path d="M3048 2173 c6 -2 18 -2 25 0 6 3 1 5 -13 5 -14 0 -19 -2 -12 -5z"/>
<path d="M3000 2160 c-9 -6 -10 -10 -3 -10 6 0 15 5 18 10 8 12 4 12 -15 0z"/>
<path d="M3107 2163 c-4 -3 -7 -11 -7 -17 0 -6 5 -5 12 2 6 6 9 14 7 17 -3 3
-9 2 -12 -2z"/>
<path d="M3095 2070 c3 -5 11 -10 16 -10 6 0 7 5 4 10 -3 6 -11 10 -16 10 -6
0 -7 -4 -4 -10z"/>
<path d="M3125 1910 c-3 -5 -1 -10 4 -10 6 0 11 5 11 10 0 6 -2 10 -4 10 -3 0
-8 -4 -11 -10z"/>
<path d="M2830 1894 c0 -8 5 -12 10 -9 6 3 10 10 10 16 0 5 -4 9 -10 9 -5 0
-10 -7 -10 -16z"/>
<path d="M970 1313 c8 -3 19 -11 23 -17 6 -7 7 -6 4 4 -2 8 -12 16 -23 17 -13
2 -15 1 -4 -4z"/>
<path d="M1046 1187 c3 -10 9 -15 12 -12 3 3 0 11 -7 18 -10 9 -11 8 -5 -6z"/>
<path d="M1195 1140 c3 -5 8 -10 11 -10 2 0 4 5 4 10 0 6 -5 10 -11 10 -5 0
-7 -4 -4 -10z"/>
<path d="M1222 1027 c-8 -9 -6 -16 8 -24 15 -10 21 -9 32 4 11 14 10 15 -10 9
-17 -6 -21 -4 -16 8 7 19 0 21 -14 3z"/>
<path d="M1346 962 c-3 -6 -1 -14 5 -17 14 -9 20 -2 10 14 -6 8 -11 9 -15 3z"/>
<path d="M1460 850 c0 -5 4 -10 10 -10 5 0 7 -6 4 -14 -3 -7 2 -16 10 -19 19
-8 19 -5 4 28 -11 25 -28 34 -28 15z"/>
<path d="M1640 1300 c0 -5 5 -10 11 -10 5 0 7 5 4 10 -3 6 -8 10 -11 10 -2 0
-4 -4 -4 -10z"/>
<path d="M1735 1240 c-3 -5 -2 -10 4 -10 5 0 13 5 16 10 3 6 2 10 -4 10 -5 0
-13 -4 -16 -10z"/>
<path d="M1537 3731 c-16 -10 -25 -21 -20 -24 4 -2 19 6 33 19 30 29 25 30
-13 5z"/>
<path d="M3560 3710 c0 -5 5 -10 10 -10 6 0 10 5 10 10 0 6 -4 10 -10 10 -5 0
-10 -4 -10 -10z"/>
<path d="M1746 3661 c-18 -7 -18 -8 -3 -14 9 -3 17 -2 17 3 0 5 19 11 43 13
l42 4 -40 1 c-22 0 -49 -3 -59 -7z"/>
<path d="M1880 3659 c0 -5 9 -9 20 -9 11 0 20 2 20 4 0 2 -9 6 -20 9 -11 3
-20 1 -20 -4z"/>
<path d="M2105 3650 c-3 -5 -2 -10 4 -10 5 0 13 5 16 10 3 6 2 10 -4 10 -5 0
-13 -4 -16 -10z"/>
<path d="M2061 3620 c-13 -11 -19 -20 -14 -20 6 0 18 9 28 20 23 25 17 25 -14
0z"/>
<path d="M1172 3610 c0 -14 2 -19 5 -12 2 6 2 18 0 25 -3 6 -5 1 -5 -13z"/>
<path d="M1625 3590 c-3 -6 1 -7 9 -4 18 7 21 14 7 14 -6 0 -13 -4 -16 -10z"/>
<path d="M2400 3566 c0 -4 7 -14 15 -22 8 -9 15 -11 15 -6 0 5 -7 15 -15 22
-8 7 -15 9 -15 6z"/>
<path d="M1046 3438 c6 -21 -11 -48 -31 -48 -19 0 -132 -78 -155 -107 -22 -28
-18 -46 7 -36 12 5 14 3 9 -8 -4 -8 3 -3 15 11 15 17 20 19 16 8 -5 -14 -1
-18 16 -18 17 0 19 2 7 10 -19 12 -8 22 14 14 13 -5 16 -14 12 -30 -6 -21 -3
-24 22 -24 29 0 146 53 157 71 4 5 20 9 36 9 23 0 30 4 28 18 -3 30 1 43 10
38 5 -4 7 4 3 16 -3 14 -2 19 6 14 13 -8 16 12 4 31 -6 9 -132 15 -132 5 0
-14 36 -52 46 -48 8 3 13 2 12 -2 -1 -4 2 -15 7 -25 5 -12 1 -23 -15 -37 -13
-11 -27 -21 -32 -21 -4 -1 -14 -2 -20 -3 -16 -3 -38 13 -38 26 0 6 7 8 15 4
40 -15 54 26 21 63 -9 10 -18 34 -19 53 -1 20 -7 35 -15 35 -7 0 -10 -7 -6
-19z m84 -48 c0 -5 -2 -10 -4 -10 -3 0 -8 5 -11 10 -3 6 -1 10 4 10 6 0 11 -4
11 -10z"/>
<path d="M2551 3413 c-13 -13 -19 -23 -14 -23 6 0 14 -16 17 -35 7 -38 26 -58
21 -23 -1 13 -4 30 -6 38 -2 8 2 14 9 12 8 -1 11 2 7 7 -3 6 -13 7 -23 4 -15
-6 -15 -4 2 15 26 30 17 33 -13 5z"/>
<path d="M1955 3390 c3 -5 8 -10 11 -10 2 0 4 5 4 10 0 6 -5 10 -11 10 -5 0
-7 -4 -4 -10z"/>
<path d="M2406 3381 c-3 -5 1 -11 9 -15 8 -3 15 -1 15 4 0 13 -18 22 -24 11z"/>
<path d="M2366 3291 c-4 -29 -5 -55 -2 -58 6 -7 19 83 14 99 -3 7 -8 -11 -12
-41z"/>
<path d="M4713 3314 c-18 -8 -33 -16 -33 -19 0 -11 51 1 72 17 28 22 7 23 -39
2z"/>
<path d="M2570 3283 c0 -13 5 -23 10 -23 13 0 13 11 0 30 -8 12 -10 11 -10 -7z"/>
<path d="M809 3229 c-10 -6 -8 -9 12 -9 15 0 38 -9 53 -21 14 -11 31 -17 36
-14 16 10 40 -14 33 -32 -4 -11 -3 -14 6 -9 15 9 4 46 -18 63 -9 7 -27 12 -41
11 -14 -1 -34 3 -46 9 -12 7 -25 8 -35 2z"/>
<path d="M207 3183 c-4 -3 -7 -11 -7 -17 0 -6 5 -5 12 2 6 6 9 14 7 17 -3 3
-9 2 -12 -2z"/>
<path d="M201 3124 c0 -11 3 -14 6 -6 3 7 2 16 -1 19 -3 4 -6 -2 -5 -13z"/>
<path d="M875 3120 c-3 -5 -1 -10 4 -10 6 0 11 5 11 10 0 6 -2 10 -4 10 -3 0
-8 -4 -11 -10z"/>
<path d="M1085 3101 c-9 -16 9 -20 23 -5 10 12 10 14 -2 14 -8 0 -17 -4 -21
-9z"/>
<path d="M190 3051 c0 -21 -3 -60 -6 -87 -4 -27 -4 -46 0 -43 10 9 23 169 14
169 -4 0 -8 -17 -8 -39z"/>
<path d="M2775 2960 c-3 -5 -1 -10 4 -10 6 0 11 5 11 10 0 6 -2 10 -4 10 -3 0
-8 -4 -11 -10z"/>
<path d="M3060 2905 c0 -8 12 -31 26 -52 23 -35 25 -36 20 -10 -3 15 -8 38
-11 52 -6 26 -35 35 -35 10z"/>
<path d="M850 2890 c0 -5 5 -10 11 -10 5 0 7 5 4 10 -3 6 -8 10 -11 10 -2 0
-4 -4 -4 -10z"/>
<path d="M2910 2891 c0 -5 7 -14 15 -21 12 -10 15 -10 15 3 0 8 6 18 13 20 6
3 0 6 -15 6 -16 1 -28 -3 -28 -8z"/>
<path d="M174 2753 c10 -187 23 -279 57 -410 32 -123 60 -191 67 -161 2 9 -6
37 -16 62 -11 24 -26 71 -33 103 -7 32 -16 63 -20 69 -5 6 -11 37 -13 70 -3
32 -8 71 -11 86 -4 21 -11 160 -14 286 -1 12 -6 22 -12 22 -9 0 -10 -35 -5
-127z"/>
<path d="M2566 2831 c-40 -47 -58 -115 -34 -139 16 -16 9 -15 -41 3 -22 8 -41
10 -41 6 0 -10 54 -31 80 -31 10 0 21 -7 24 -16 5 -14 4 -15 -8 -5 -16 13 7
-53 45 -134 11 -23 22 -58 26 -78 3 -21 9 -40 13 -42 4 -3 4 11 0 31 -7 28 -6
33 5 24 7 -6 16 -22 19 -35 7 -29 35 -39 71 -25 51 20 36 3 -20 -21 -30 -13
-55 -30 -55 -37 0 -9 5 -9 18 -2 9 5 52 23 95 41 42 17 75 35 72 39 -3 4 -13
6 -24 3 -16 -4 -18 0 -13 23 4 25 6 26 18 10 10 -15 12 -11 8 26 -3 34 3 57
28 108 17 36 34 67 38 70 18 12 17 86 -1 127 -21 46 -29 54 -62 57 -12 2 -36
6 -54 10 -18 4 -40 3 -52 -4 -12 -6 -21 -7 -21 -1 0 17 -118 10 -134 -8z m109
-33 l28 -22 18 23 c16 19 25 22 52 17 19 -3 42 -13 53 -22 18 -15 18 -15 -3
-9 -17 5 -23 2 -23 -9 0 -9 4 -16 9 -16 14 0 23 -37 16 -60 -4 -11 -11 -18
-16 -15 -5 3 -6 -2 -2 -11 4 -12 3 -15 -5 -10 -8 5 -10 2 -6 -8 4 -10 -1 -18
-11 -22 -9 -4 -14 -12 -11 -19 2 -7 -8 -25 -24 -40 -24 -23 -27 -31 -19 -52
15 -39 11 -64 -11 -70 -11 -3 -20 -12 -20 -19 0 -25 -16 -15 -33 21 -9 20 -17
41 -17 47 0 6 -11 35 -25 65 -14 29 -37 78 -51 110 l-27 56 24 44 c28 50 59
57 104 21z m184 -78 c0 -10 -3 -8 -9 5 -12 27 -12 43 0 25 5 -8 9 -22 9 -30z
m-45 -101 c-21 -41 -41 -94 -45 -119 l-6 -45 -2 40 c-1 29 10 62 41 122 23 45
44 81 46 79 2 -2 -14 -37 -34 -77z m-234 -24 c0 -5 -5 -3 -10 5 -5 8 -10 20
-10 25 0 6 5 3 10 -5 5 -8 10 -19 10 -25z m14 -31 c3 -8 2 -12 -4 -9 -6 3 -10
10 -10 16 0 14 7 11 14 -7z"/>
<path d="M2650 2791 c0 -5 7 -14 15 -21 10 -8 13 -21 9 -33 -4 -13 -2 -17 5
-13 15 9 14 49 -1 64 -14 14 -28 16 -28 3z"/>
<path d="M2729 2751 c-7 -16 -21 -32 -30 -34 -15 -4 -16 -10 -7 -48 16 -64 32
-75 24 -16 -6 39 -5 47 8 47 9 0 16 5 16 10 0 17 18 11 23 -7 4 -17 5 -17 6
-1 0 10 -8 22 -20 28 -16 9 -18 14 -8 26 6 8 9 17 7 20 -3 3 -12 -8 -19 -25z"/>
<path d="M2580 2735 c0 -2 9 -19 21 -37 12 -18 18 -24 14 -13 -4 11 -10 28
-12 38 -5 15 -23 25 -23 12z"/>
<path d="M2656 2570 c4 -14 10 -27 14 -30 4 -3 10 -14 13 -25 4 -15 5 -14 6 8
0 15 -3 27 -7 27 -5 0 -14 10 -21 23 -11 22 -11 22 -5 -3z"/>
<path d="M3386 2530 c6 -6 52 -32 104 -60 87 -46 91 -47 65 -20 -16 17 -58 44
-92 60 -64 31 -96 39 -77 20z"/>
<path d="M295 2138 c11 -36 103 -265 118 -294 l15 -28 0 29 c0 16 -13 53 -29
82 -16 30 -29 60 -29 68 0 7 -7 21 -16 29 -8 9 -12 16 -8 16 3 0 1 7 -6 15 -6
8 -9 19 -5 25 3 5 1 10 -5 10 -6 0 -10 6 -9 13 2 20 -13 57 -23 57 -5 0 -6
-10 -3 -22z"/>
<path d="M446 1791 c-4 -5 0 -16 8 -24 8 -8 13 -17 10 -20 -3 -2 9 -28 26 -56
16 -29 30 -54 30 -57 0 -11 84 -134 92 -134 4 0 8 -7 8 -15 0 -21 118 -192
189 -275 131 -153 496 -508 509 -495 2 2 -16 22 -39 43 -295 268 -310 282
-289 282 6 0 8 5 5 10 -4 6 -11 8 -16 5 -9 -6 -54 40 -59 60 -2 6 -16 18 -31
27 -16 10 -29 25 -29 33 0 9 -4 14 -9 11 -5 -3 -11 4 -15 17 -3 12 -20 39 -39
59 -19 21 -32 40 -29 43 3 3 -8 20 -24 38 -17 17 -48 59 -70 91 -21 32 -46 63
-56 69 -9 6 -14 16 -11 22 2 7 -3 15 -11 18 -9 4 -16 14 -16 24 0 10 -7 29
-14 43 -8 14 -27 51 -42 83 -15 31 -31 57 -35 57 -5 0 -9 5 -9 11 0 16 -28 40
-34 30z"/>
<path d="M2268 1683 c7 -3 16 -2 19 1 4 3 -2 6 -13 5 -11 0 -14 -3 -6 -6z"/>
<path d="M3281 1674 c0 -11 3 -14 6 -6 3 7 2 16 -1 19 -3 4 -6 -2 -5 -13z"/>
<path d="M1330 703 c0 -17 121 -105 136 -99 8 3 13 1 11 -4 -2 -9 252 -174
259 -167 5 4 -145 110 -213 152 -18 11 -66 40 -106 64 -39 24 -75 49 -79 55
-6 8 -8 8 -8 -1z"/>
<path d="M1776 405 c10 -8 23 -15 28 -15 6 0 1 7 -10 15 -10 8 -23 15 -28 15
-6 0 -1 -7 10 -15z"/>
</g>
</svg>
